<svg xmlns="http://www.w3.org/2000/svg" viewBox="0 0 967.21 184.07"><title>Asset 3</title><g id="Layer_2" data-name="Layer 2"><g id="Layer_1-2" data-name="Layer 1"><path d="M226.3,163.34l-2.63,7h5.17Zm0,0-2.63,7h5.17Zm-24.63-.71h-2V168h1.75c2.11,0,3.26-.95,3.26-2.71S203.58,162.63,201.67,162.63Zm24.63.71-2.63,7h5.17Zm0,0-2.63,7h5.17Zm-24.63-.71h-2V168h1.75c2.11,0,3.26-.95,3.26-2.71S203.58,162.63,201.67,162.63Zm-14.27,0h-1.88v10.93h.63c2.36,0,3.36-.25,4.36-1a5.58,5.58,0,0,0,1.88-4.61C192.39,164.53,190.6,162.61,187.4,162.61Zm14.27,0h-2V168h1.75c2.11,0,3.26-.95,3.26-2.71S203.58,162.63,201.67,162.63Zm24.63.71-2.63,7h5.17Zm0,0-2.63,7h5.17Zm-24.63-.71h-2V168h1.75c2.11,0,3.26-.95,3.26-2.71S203.58,162.63,201.67,162.63Zm-14.27,0h-1.88v10.93h.63c2.36,0,3.36-.25,4.36-1a5.58,5.58,0,0,0,1.88-4.61C192.39,164.53,190.6,162.61,187.4,162.61ZM158.86,164a5,5,0,0,0-3.42-1.44c-2.91,0-5.05,2.38-5.05,5.59s2.13,5.59,5,5.59a5,5,0,0,0,3.72-1.67,6,6,0,0,0,1.33-3.82A5.52,5.52,0,0,0,158.86,164Zm28.54-1.34h-1.88v10.93h.63c2.36,0,3.36-.25,4.36-1a5.58,5.58,0,0,0,1.88-4.61C192.39,164.53,190.6,162.61,187.4,162.61Zm14.27,0h-2V168h1.75c2.11,0,3.26-.95,3.26-2.71S203.58,162.63,201.67,162.63Zm24.63.71-2.63,7h5.17Zm0,0-2.63,7h5.17Zm-24.63-.71h-2V168h1.75c2.11,0,3.26-.95,3.26-2.71S203.58,162.63,201.67,162.63Zm-14.27,0h-1.88v10.93h.63c2.36,0,3.36-.25,4.36-1a5.58,5.58,0,0,0,1.88-4.61C192.39,164.53,190.6,162.61,187.4,162.61ZM158.86,164a5,5,0,0,0-3.42-1.44c-2.91,0-5.05,2.38-5.05,5.59s2.13,5.59,5,5.59a5,5,0,0,0,3.72-1.67,6,6,0,0,0,1.33-3.82A5.52,5.52,0,0,0,158.86,164Zm-52.66-.61-2.63,7h5.18Zm52.66.61a5,5,0,0,0-3.42-1.44c-2.91,0-5.05,2.38-5.05,5.59s2.13,5.59,5,5.59a5,5,0,0,0,3.72-1.67,6,6,0,0,0,1.33-3.82A5.52,5.52,0,0,0,158.86,164Zm28.54-1.34h-1.88v10.93h.63c2.36,0,3.36-.25,4.36-1a5.58,5.58,0,0,0,1.88-4.61C192.39,164.53,190.6,162.61,187.4,162.61Zm14.27,0h-2V168h1.75c2.11,0,3.26-.95,3.26-2.71S203.58,162.63,201.67,162.63Zm24.63.71-2.63,7h5.17Zm0,0-2.63,7h5.17Zm-24.63-.71h-2V168h1.75c2.11,0,3.26-.95,3.26-2.71S203.58,162.63,201.67,162.63Zm-14.27,0h-1.88v10.93h.63c2.36,0,3.36-.25,4.36-1a5.58,5.58,0,0,0,1.88-4.61C192.39,164.53,190.6,162.61,187.4,162.61ZM158.86,164a5,5,0,0,0-3.42-1.44c-2.91,0-5.05,2.38-5.05,5.59s2.13,5.59,5,5.59a5,5,0,0,0,3.72-1.67,6,6,0,0,0,1.33-3.82A5.52,5.52,0,0,0,158.86,164Zm-52.66-.61-2.63,7h5.18Zm0,0-2.63,7h5.18Zm52.66.61a5,5,0,0,0-3.42-1.44c-2.91,0-5.05,2.38-5.05,5.59s2.13,5.59,5,5.59a5,5,0,0,0,3.72-1.67,6,6,0,0,0,1.33-3.82A5.52,5.52,0,0,0,158.86,164Zm28.54-1.34h-1.88v10.93h.63c2.36,0,3.36-.25,4.36-1a5.58,5.58,0,0,0,1.88-4.61C192.39,164.53,190.6,162.61,187.4,162.61Zm14.27,0h-2V168h1.75c2.11,0,3.26-.95,3.26-2.71S203.58,162.63,201.67,162.63Zm24.63.71-2.63,7h5.17Zm0,0-2.63,7h5.17Zm-24.63-.71h-2V168h1.75c2.11,0,3.26-.95,3.26-2.71S203.58,162.63,201.67,162.63Zm-14.27,0h-1.88v10.93h.63c2.36,0,3.36-.25,4.36-1a5.58,5.58,0,0,0,1.88-4.61C192.39,164.53,190.6,162.61,187.4,162.61ZM158.86,164a5,5,0,0,0-3.42-1.44c-2.91,0-5.05,2.38-5.05,5.59s2.13,5.59,5,5.59a5,5,0,0,0,3.72-1.67,6,6,0,0,0,1.33-3.82A5.52,5.52,0,0,0,158.86,164Zm-52.66-.61-2.63,7h5.18ZM70,164a5,5,0,0,0-3.42-1.44c-2.91,0-5,2.38-5,5.59s2.13,5.59,5,5.59A5,5,0,0,0,70.27,172a6,6,0,0,0,1.33-3.82A5.52,5.52,0,0,0,70,164Zm36.18-.61-2.63,7h5.18Zm52.66.61a5,5,0,0,0-3.42-1.44c-2.91,0-5.05,2.38-5.05,5.59s2.13,5.59,5,5.59a5,5,0,0,0,3.72-1.67,6,6,0,0,0,1.33-3.82A5.52,5.52,0,0,0,158.86,164Zm28.54-1.34h-1.88v10.93h.63c2.36,0,3.36-.25,4.36-1a5.58,5.58,0,0,0,1.88-4.61C192.39,164.53,190.6,162.61,187.4,162.61Zm14.27,0h-2V168h1.75c2.11,0,3.26-.95,3.26-2.71S203.58,162.63,201.67,162.63Zm24.63.71-2.63,7h5.17Zm0,0-2.63,7h5.17Zm-24.63-.71h-2V168h1.75c2.11,0,3.26-.95,3.26-2.71S203.58,162.63,201.67,162.63Zm-14.27,0h-1.88v10.93h.63c2.36,0,3.36-.25,4.36-1a5.58,5.58,0,0,0,1.88-4.61C192.39,164.53,190.6,162.61,187.4,162.61ZM158.86,164a5,5,0,0,0-3.42-1.44c-2.91,0-5.05,2.38-5.05,5.59s2.13,5.59,5,5.59a5,5,0,0,0,3.72-1.67,6,6,0,0,0,1.33-3.82A5.52,5.52,0,0,0,158.86,164Zm-52.66-.61-2.63,7h5.18ZM70,164a5,5,0,0,0-3.42-1.44c-2.91,0-5,2.38-5,5.59s2.13,5.59,5,5.59A5,5,0,0,0,70.27,172a6,6,0,0,0,1.33-3.82A5.52,5.52,0,0,0,70,164Zm-54.14-6.2V179.8H268.47V157.75ZM30.13,175,29,171.83H22.74L21.47,175H19.66l5.23-13.91H27L32.09,175Zm25.94,0H54.32V164.86l-5.18,10.33L44,164.84V175H42.26V161.13H44l5.15,10.43,5.22-10.43h1.71Zm15-1.42a6.75,6.75,0,0,1-4.44,1.67,7,7,0,0,1-5.38-2.6,7.19,7.19,0,0,1-1.46-4.53c0-4.15,2.93-7.28,6.88-7.28a6.86,6.86,0,0,1,5.13,2.4,7.13,7.13,0,0,1,1.62,4.94A7,7,0,0,1,71,173.62ZM87.87,175H86.32L78.83,164.4V175H77.08V161.13h1.61l7.43,10.47V161.13h1.75Zm11.74-12.41H96.08V175H94.33V162.63H90.79v-1.5h8.82ZM110.43,175l-1.14-3.21h-6.24L101.77,175H100l5.23-13.91h2.1l5.1,13.91Zm15.75-2.29a6.52,6.52,0,0,1-5.24,2.54,6.8,6.8,0,0,1-6.86-7.17c0-4.22,2.88-7.24,6.86-7.24a6.53,6.53,0,0,1,5.24,2.52l-1.32,1.07a5.87,5.87,0,0,0-1.16-1.11,4.74,4.74,0,0,0-2.76-.87c-2.88,0-5.07,2.41-5.07,5.61s2.19,5.59,5,5.59a5,5,0,0,0,4-2.05,4.77,4.77,0,0,0,.9-2.62H121v-1.51h6.64c0,.3,0,.67,0,.8A6.58,6.58,0,0,1,126.18,172.75Zm12.09-10.12h-5.48v4.65h5.48v1.5h-5.48v4.76h5.48V175H131V161.13h7.23Zm21.6,11a6.75,6.75,0,0,1-4.43,1.67,7,7,0,0,1-5.39-2.6,7.25,7.25,0,0,1-1.46-4.53c0-4.15,2.94-7.28,6.89-7.28a6.88,6.88,0,0,1,5.13,2.4,7.13,7.13,0,0,1,1.62,4.94A6.92,6.92,0,0,1,159.87,173.62Zm13.23-11h-5.43v4.65h5.43v1.5h-5.43V175h-1.75V161.13h7.18ZM192,173.44a7,7,0,0,1-4.84,1.6h-3.38V161.13h3.7c4.19,0,6.71,2.55,6.71,6.74A7.21,7.21,0,0,1,192,173.44Zm13,1.6-5.41-5.84V175h-1.75V161.13h3.8c3,0,4.75,1.52,4.75,4.05a3.78,3.78,0,0,1-2,3.5,5.87,5.87,0,0,1-2.56.59l5.39,5.77Zm12.51-12.41h-5.49v4.65h5.49v1.5h-5.49v4.76h5.49V175H210.3V161.13h7.24Zm13,12.41-1.15-3.21h-6.23L221.88,175h-1.82l5.24-13.91h2.08L232.49,175Zm18.64,0h-1.75V164.86l-5.17,10.33-5.13-10.35V175h-1.75V161.13h1.73l5.15,10.43,5.21-10.43h1.71Zm7.76.25a3.92,3.92,0,0,1-3.71-1.88,3.34,3.34,0,0,1-.48-1.81v-.29h1.67a2.25,2.25,0,0,0,2.46,2.42,2.42,2.42,0,0,0,2.67-2.36c0-1.21-.63-1.77-2.82-2.5a7,7,0,0,1-2.81-1.4,3.46,3.46,0,0,1-1.09-2.63,4.14,4.14,0,0,1,8.28,0h-1.75a2.51,2.51,0,0,0-.34-1.43,2.4,2.4,0,0,0-2.06-1,2.24,2.24,0,0,0-2.36,2.28,1.92,1.92,0,0,0,.8,1.6,7.81,7.81,0,0,0,2.23,1,6.09,6.09,0,0,1,2.75,1.5,3.59,3.59,0,0,1,.94,2.46C261.31,173.66,259.54,175.29,256.93,175.29Zm-33.26-5h5.17l-2.54-7Zm-19-5c0-1.73-1-2.67-3-2.67h-2V168h1.75C203.48,168,204.63,167.06,204.63,165.3Zm-17.23-2.69h-1.88v10.93h.63c2.36,0,3.36-.25,4.36-1a5.58,5.58,0,0,0,1.88-4.61C192.39,164.53,190.6,162.61,187.4,162.61Zm-32-.1c-2.91,0-5.05,2.38-5.05,5.59s2.13,5.59,5,5.59a5,5,0,0,0,3.72-1.67,6,6,0,0,0,1.33-3.82,5.52,5.52,0,0,0-1.58-4.25A5,5,0,0,0,155.44,162.51Zm-51.87,7.82h5.18l-2.55-7Zm-37-7.82c-2.91,0-5,2.38-5,5.59s2.13,5.59,5,5.59A5,5,0,0,0,70.27,172a6,6,0,0,0,1.33-3.82A5.52,5.52,0,0,0,70,164,5,5,0,0,0,66.6,162.51Zm-43.34,7.82h5.17l-2.54-7ZM70,164a5,5,0,0,0-3.42-1.44c-2.91,0-5,2.38-5,5.59s2.13,5.59,5,5.59A5,5,0,0,0,70.27,172a6,6,0,0,0,1.33-3.82A5.52,5.52,0,0,0,70,164Zm36.18-.61-2.63,7h5.18Zm52.66.61a5,5,0,0,0-3.42-1.44c-2.91,0-5.05,2.38-5.05,5.59s2.13,5.59,5,5.59a5,5,0,0,0,3.72-1.67,6,6,0,0,0,1.33-3.82A5.52,5.52,0,0,0,158.86,164Zm28.54-1.34h-1.88v10.93h.63c2.36,0,3.36-.25,4.36-1a5.58,5.58,0,0,0,1.88-4.61C192.39,164.53,190.6,162.61,187.4,162.61Zm14.27,0h-2V168h1.75c2.11,0,3.26-.95,3.26-2.71S203.58,162.63,201.67,162.63Zm24.63.71-2.63,7h5.17Zm0,0-2.63,7h5.17Zm-24.63-.71h-2V168h1.75c2.11,0,3.26-.95,3.26-2.71S203.58,162.63,201.67,162.63Zm-14.27,0h-1.88v10.93h.63c2.36,0,3.36-.25,4.36-1a5.58,5.58,0,0,0,1.88-4.61C192.39,164.53,190.6,162.61,187.4,162.61ZM158.86,164a5,5,0,0,0-3.42-1.44c-2.91,0-5.05,2.38-5.05,5.59s2.13,5.59,5,5.59a5,5,0,0,0,3.72-1.67,6,6,0,0,0,1.33-3.82A5.52,5.52,0,0,0,158.86,164Zm-52.66-.61-2.63,7h5.18ZM70,164a5,5,0,0,0-3.42-1.44c-2.91,0-5,2.38-5,5.59s2.13,5.59,5,5.59A5,5,0,0,0,70.27,172a6,6,0,0,0,1.33-3.82A5.52,5.52,0,0,0,70,164Zm36.18-.61-2.63,7h5.18Zm52.66.61a5,5,0,0,0-3.42-1.44c-2.91,0-5.05,2.38-5.05,5.59s2.13,5.59,5,5.59a5,5,0,0,0,3.72-1.67,6,6,0,0,0,1.33-3.82A5.52,5.52,0,0,0,158.86,164Zm28.54-1.34h-1.88v10.93h.63c2.36,0,3.36-.25,4.36-1a5.58,5.58,0,0,0,1.88-4.61C192.39,164.53,190.6,162.61,187.4,162.61Zm14.27,0h-2V168h1.75c2.11,0,3.26-.95,3.26-2.71S203.58,162.63,201.67,162.63Zm24.63.71-2.63,7h5.17Zm0,0-2.63,7h5.17Zm-24.63-.71h-2V168h1.75c2.11,0,3.26-.95,3.26-2.71S203.58,162.63,201.67,162.63Zm-14.27,0h-1.88v10.93h.63c2.36,0,3.36-.25,4.36-1a5.58,5.58,0,0,0,1.88-4.61C192.39,164.53,190.6,162.61,187.4,162.61ZM158.86,164a5,5,0,0,0-3.42-1.44c-2.91,0-5.05,2.38-5.05,5.59s2.13,5.59,5,5.59a5,5,0,0,0,3.72-1.67,6,6,0,0,0,1.33-3.82A5.52,5.52,0,0,0,158.86,164Zm-52.66-.61-2.63,7h5.18Zm52.66.61a5,5,0,0,0-3.42-1.44c-2.91,0-5.05,2.38-5.05,5.59s2.13,5.59,5,5.59a5,5,0,0,0,3.72-1.67,6,6,0,0,0,1.33-3.82A5.52,5.52,0,0,0,158.86,164Zm28.54-1.34h-1.88v10.93h.63c2.36,0,3.36-.25,4.36-1a5.58,5.58,0,0,0,1.88-4.61C192.39,164.53,190.6,162.61,187.4,162.61Zm14.27,0h-2V168h1.75c2.11,0,3.26-.95,3.26-2.71S203.58,162.63,201.67,162.63Zm24.63.71-2.63,7h5.17Zm0,0-2.63,7h5.17Zm-24.63-.71h-2V168h1.75c2.11,0,3.26-.95,3.26-2.71S203.58,162.63,201.67,162.63Zm-14.27,0h-1.88v10.93h.63c2.36,0,3.36-.25,4.36-1a5.58,5.58,0,0,0,1.88-4.61C192.39,164.53,190.6,162.61,187.4,162.61ZM158.86,164a5,5,0,0,0-3.42-1.44c-2.91,0-5.05,2.38-5.05,5.59s2.13,5.59,5,5.59a5,5,0,0,0,3.72-1.67,6,6,0,0,0,1.33-3.82A5.52,5.52,0,0,0,158.86,164Zm0,0a5,5,0,0,0-3.42-1.44c-2.91,0-5.05,2.38-5.05,5.59s2.13,5.59,5,5.59a5,5,0,0,0,3.72-1.67,6,6,0,0,0,1.33-3.82A5.52,5.52,0,0,0,158.86,164Zm28.54-1.34h-1.88v10.93h.63c2.36,0,3.36-.25,4.36-1a5.58,5.58,0,0,0,1.88-4.61C192.39,164.53,190.6,162.61,187.4,162.61Zm14.27,0h-2V168h1.75c2.11,0,3.26-.95,3.26-2.71S203.58,162.63,201.67,162.63Zm24.63.71-2.63,7h5.17Zm0,0-2.63,7h5.17Zm-24.63-.71h-2V168h1.75c2.11,0,3.26-.95,3.26-2.71S203.58,162.63,201.67,162.63Zm-14.27,0h-1.88v10.93h.63c2.36,0,3.36-.25,4.36-1a5.58,5.58,0,0,0,1.88-4.61C192.39,164.53,190.6,162.61,187.4,162.61ZM158.86,164a5,5,0,0,0-3.42-1.44c-2.91,0-5.05,2.38-5.05,5.59s2.13,5.59,5,5.59a5,5,0,0,0,3.72-1.67,6,6,0,0,0,1.33-3.82A5.52,5.52,0,0,0,158.86,164Zm28.54-1.34h-1.88v10.93h.63c2.36,0,3.36-.25,4.36-1a5.58,5.58,0,0,0,1.88-4.61C192.39,164.53,190.6,162.61,187.4,162.61Zm14.27,0h-2V168h1.75c2.11,0,3.26-.95,3.26-2.71S203.58,162.63,201.67,162.63Zm24.63.71-2.63,7h5.17Zm0,0-2.63,7h5.17Zm-24.63-.71h-2V168h1.75c2.11,0,3.26-.95,3.26-2.71S203.58,162.63,201.67,162.63Zm-14.27,0h-1.88v10.93h.63c2.36,0,3.36-.25,4.36-1a5.58,5.58,0,0,0,1.88-4.61C192.39,164.53,190.6,162.61,187.4,162.61Zm38.9.73-2.63,7h5.17Zm0,0-2.63,7h5.17Z"/><path d="M97.19,23.58,65.91,87.76,34.27,23.58H.49V142.81h29V74.7l36.46,72.94L102.2,74.7v68.11h29V23.58Z"/><path d="M190,56.83c-27.52,0-46.65,18.41-46.65,44.69,0,25.92,19.48,44.51,46.3,44.51,26.09,0,46.65-19.13,46.65-43.61C236.26,76,216.78,56.83,190,56.83Zm-13.05,66.48-3.1,5.38a.55.55,0,0,1-.74.21l-.22-.14a.53.53,0,0,1-.2-.73l3.11-5.39a.54.54,0,0,1,.74-.2l.22.13A.54.54,0,0,1,176.91,123.31Zm6.85,1.91-1.61,6a.55.55,0,0,1-.66.39l-.26-.07a.54.54,0,0,1-.38-.66l1.61-6a.54.54,0,0,1,.66-.38l.26.07A.54.54,0,0,1,183.76,125.22Zm6.74,7.13a.54.54,0,0,1-.54.54h-.27a.54.54,0,0,1-.53-.54v-6.22a.54.54,0,0,1,.53-.54H190a.54.54,0,0,1,.54.54Zm7.92-.66-.25.07a.54.54,0,0,1-.66-.39l-1.61-6a.53.53,0,0,1,.38-.66l.26-.07a.54.54,0,0,1,.66.38l1.61,6A.56.56,0,0,1,198.42,131.69Zm8.39-2.78-.22.13a.54.54,0,0,1-.74-.2l-3.11-5.38a.55.55,0,0,1,.19-.74l.23-.13a.54.54,0,0,1,.74.2l3.1,5.38A.54.54,0,0,1,206.81,128.91Zm-17-6.83c-11.44,0-19.3-8.4-19.3-20.56C170.48,89.19,178.17,81,190,81s18.95,7.87,18.95,21.1C208.91,113.86,201.05,122.08,189.78,122.08Z"/><path d="M278.84,83.33s-.07,0-.09,0h-.05l0,0a1.82,1.82,0,0,0,.33-.11Z"/><path d="M278.61,83.39h.06l0,0Z"/><path d="M288.81,56.83c-27.53,0-46.66,18.41-46.66,44.69,0,25.92,19.49,44.51,46.3,44.51,26.1,0,46.66-19.13,46.66-43.61C335.11,76,315.62,56.83,288.81,56.83ZM301.54,79.6l3.11-5.38a.54.54,0,0,1,.74-.2l.22.13a.54.54,0,0,1,.2.74l-3.11,5.39a.55.55,0,0,1-.74.19l-.22-.13A.54.54,0,0,1,301.54,79.6Zm-6.84-1.9,1.61-6a.54.54,0,0,1,.66-.38l.26.07a.55.55,0,0,1,.38.66L296,78a.54.54,0,0,1-.66.38l-.26-.07A.52.52,0,0,1,294.7,77.7Zm-6.74-7a.54.54,0,0,1,.54-.54h.26a.54.54,0,0,1,.54.54v6.22a.54.54,0,0,1-.54.54h-.26a.54.54,0,0,1-.54-.54Zm-7.92.81.25-.07a.54.54,0,0,1,.66.38l1.61,6a.53.53,0,0,1-.38.66l-.26.07a.54.54,0,0,1-.66-.38l-1.61-6A.54.54,0,0,1,280,71.52Zm-8.39,2.78.22-.13a.55.55,0,0,1,.74.19l3.11,5.39a.55.55,0,0,1-.19.74l-.23.13a.54.54,0,0,1-.74-.2L271.45,75A.54.54,0,0,1,271.65,74.3Zm4.07,49-3.11,5.38a.55.55,0,0,1-.74.21l-.22-.14a.53.53,0,0,1-.2-.73l3.11-5.39a.54.54,0,0,1,.74-.2l.23.13A.55.55,0,0,1,275.72,123.31Zm6.84,1.91-1.61,6a.54.54,0,0,1-.66.39l-.25-.07a.55.55,0,0,1-.39-.66l1.61-6a.54.54,0,0,1,.66-.38l.26.07A.53.53,0,0,1,282.56,125.22Zm6.74,7.13a.54.54,0,0,1-.54.54h-.26a.54.54,0,0,1-.54-.54v-6.22a.54.54,0,0,1,.54-.54h.26a.54.54,0,0,1,.54.54Zm7.93-.66-.26.07a.55.55,0,0,1-.66-.39l-1.61-6a.53.53,0,0,1,.38-.66l.26-.07a.54.54,0,0,1,.66.38l1.61,6A.56.56,0,0,1,297.23,131.69Zm8.38-2.78-.22.13a.54.54,0,0,1-.74-.2l-3.11-5.38a.54.54,0,0,1,.2-.74l.22-.13a.54.54,0,0,1,.74.2l3.11,5.38A.54.54,0,0,1,305.61,128.91Zm-6.13-9.62h0l-.19.07-.39.14-.18.07-.44.14-.13,0c-8.87,2.83-17.65.38-19.24-.11l-.08,0,0,0h0l-.08,0h0a0,0,0,0,1,0,0h0s-10.39-2.2-21.37-18.15c11.43-16.6,21.33-18,21.33-18l.09,0h.05s.06,0,.09,0l.16,0c1.88-.57,10.91-3,19.79.11,0,0,0,0,0,0h0c1.13.22,10.51,2.45,21.21,18C310.49,115.3,302,118.59,299.48,119.29Z"/><path d="M409.82,23.58v44c-7.86-7.5-15.55-10.72-26.28-10.72-10.36,0-20.73,4.29-29,11.62-9.12,8.4-13.59,19.67-13.59,34,0,26.27,16.8,43.61,42,43.61a39.26,39.26,0,0,0,17.16-3.57c3.75-1.79,5.9-3.76,9.65-8.94v9.29H437V23.58Zm-19.66,101c-11.44,0-20.2-9.65-20.2-22.16,0-13.23,8.58-23.06,20.2-23.06,11.26,0,19.66,9.83,19.66,23.06C409.82,114.93,401.24,124.58,390.16,124.58Z"/><rect x="486.74" y="23.58" width="28.96" height="119.23"/><path d="M602.39,64.87c-5.19-5-13-8-21.27-8-10,0-15.73,3.4-21.1,12.51V60.05H532.85v82.76H560V92.59c0-8,4.47-13.23,11.44-13.23s11.26,4.82,11.26,12.87v50.58h27.17V92.05C609.89,77.39,607.93,70.59,602.39,64.87Z"/><path d="M689.08,23.58v44c-7.86-7.5-15.55-10.72-26.28-10.72-10.36,0-20.73,4.29-28.95,11.62-9.12,8.4-13.59,19.67-13.59,34,0,26.27,16.8,43.61,42,43.61a39.26,39.26,0,0,0,17.16-3.57c3.75-1.79,5.9-3.76,9.65-8.94v9.29h27.17V23.58Zm-19.66,101c-11.44,0-20.2-9.65-20.2-22.16,0-13.23,8.58-23.06,20.2-23.06,11.26,0,19.66,9.83,19.66,23.06C689.08,114.93,680.5,124.58,669.42,124.58Z"/><path d="M732.15,60.05v82.76h27.17V60.05Zm13.77-38.61c-8.58,0-14.66,6.07-14.66,14.48s6.08,14.47,14.48,14.47a14,14,0,0,0,14.48-14.3C760.22,27.51,754.32,21.44,745.92,21.44Z"/><path d="M836.9,60.05v8.4c-6.61-8.05-14.48-11.62-25.56-11.62-25.56,0-42.72,18.23-42.72,45.41,0,11.79,3.4,22.34,9.47,29.67A39.8,39.8,0,0,0,808.3,146c11.8,0,21.27-4.11,28.6-12.33v4.11c0,14.48-8.22,23.06-22.16,23.06-9.66,0-18.06-3.76-24.85-11.26l-16.44,16.8c12.33,11.44,26.27,17,42.72,17,14.65,0,27.7-4.83,36.1-13.23,8.05-8,11.09-18.23,11.09-36.46V60.05ZM833,115.64a21,21,0,0,1-15.37,6.44c-11.8,0-20-8.76-20-21.09,0-12,8-20.21,19.66-20.21,12.15,0,19.3,8.59,19.3,22.89C836.54,108.85,835.29,113,833,115.64Z"/><path d="M920.91,56.83c-27.52,0-46.65,18.41-46.65,44.69,0,25.92,19.48,44.51,46.3,44.51,26.09,0,46.65-19.13,46.65-43.61C967.21,76,947.73,56.83,920.91,56.83Zm-.17,65.25c-11.44,0-19.31-8.4-19.31-20.56,0-12.33,7.69-20.56,19.48-20.56s19,7.87,19,21.1C939.86,113.86,932,122.08,920.74,122.08Z"/><path d="M941.58,23.59h-9.74v.21a11.19,11.19,0,1,1-22.37-.18v0H893v.19c0,15.07,12.4,27,28,27a27.19,27.19,0,0,0,27.39-27.07v-.12Z"/><circle cx="170.48" cy="35.51" r="14.6"/><circle cx="208.91" cy="35.51" r="14.6"/><circle cx="288.54" cy="101.97" r="7.64"/><path d="M546.48,20.91a14.6,14.6,0,1,0,14.6,14.6A14.6,14.6,0,0,0,546.48,20.91Zm0,21.55a7,7,0,1,1,6.95-7A6.95,6.95,0,0,1,546.48,42.46Z"/><rect x="268.47" y="34.99" width="42.01" height="15.79"/><polygon points="868.69 23.58 856.6 50.39 841.55 50.39 829.46 23.58 844.57 23.58 849.05 34.04 853.57 23.58 868.69 23.58"/><path d="M298.82,83.41Z"/><path d="M278.9,119.66l-.25-.08Z"/><path d="M106.2,163.34l-2.63,7h5.18Zm0,0-2.63,7h5.18Zm0,0-2.63,7h5.18Zm0,0-2.63,7h5.18ZM70,164a5,5,0,0,0-3.42-1.44c-2.91,0-5,2.38-5,5.59s2.13,5.59,5,5.59A5,5,0,0,0,70.27,172a6,6,0,0,0,1.33-3.82A5.52,5.52,0,0,0,70,164Zm36.18-.61-2.63,7h5.18Zm0,0-2.63,7h5.18ZM70,164a5,5,0,0,0-3.42-1.44c-2.91,0-5,2.38-5,5.59s2.13,5.59,5,5.59A5,5,0,0,0,70.27,172a6,6,0,0,0,1.33-3.82A5.52,5.52,0,0,0,70,164Zm-44.13-.61-2.63,7h5.17ZM70,164a5,5,0,0,0-3.42-1.44c-2.91,0-5,2.38-5,5.59s2.13,5.59,5,5.59A5,5,0,0,0,70.27,172a6,6,0,0,0,1.33-3.82A5.52,5.52,0,0,0,70,164Zm36.18-.61-2.63,7h5.18Zm0,0-2.63,7h5.18ZM70,164a5,5,0,0,0-3.42-1.44c-2.91,0-5,2.38-5,5.59s2.13,5.59,5,5.59A5,5,0,0,0,70.27,172a6,6,0,0,0,1.33-3.82A5.52,5.52,0,0,0,70,164Zm-44.13-.61-2.63,7h5.17Zm0,0-2.63,7h5.17ZM70,164a5,5,0,0,0-3.42-1.44c-2.91,0-5,2.38-5,5.59s2.13,5.59,5,5.59A5,5,0,0,0,70.27,172a6,6,0,0,0,1.33-3.82A5.52,5.52,0,0,0,70,164Zm36.18-.61-2.63,7h5.18Zm120.1,0-2.63,7h5.17Zm0,0-2.63,7h5.17Zm-120.1,0-2.63,7h5.18ZM70,164a5,5,0,0,0-3.42-1.44c-2.91,0-5,2.38-5,5.59s2.13,5.59,5,5.59A5,5,0,0,0,70.27,172a6,6,0,0,0,1.33-3.82A5.52,5.52,0,0,0,70,164Zm-44.13-.61-2.63,7h5.17Zm0,0-2.63,7h5.17ZM70,164a5,5,0,0,0-3.42-1.44c-2.91,0-5,2.38-5,5.59s2.13,5.59,5,5.59A5,5,0,0,0,70.27,172a6,6,0,0,0,1.33-3.82A5.52,5.52,0,0,0,70,164Zm36.18-.61-2.63,7h5.18Zm95.47-.71h-2V168h1.75c2.11,0,3.26-.95,3.26-2.71S203.58,162.63,201.67,162.63Zm24.63.71-2.63,7h5.17Zm0,0-2.63,7h5.17Zm-24.63-.71h-2V168h1.75c2.11,0,3.26-.95,3.26-2.71S203.58,162.63,201.67,162.63Zm-95.47.71-2.63,7h5.18ZM70,164a5,5,0,0,0-3.42-1.44c-2.91,0-5,2.38-5,5.59s2.13,5.59,5,5.59A5,5,0,0,0,70.27,172a6,6,0,0,0,1.33-3.82A5.52,5.52,0,0,0,70,164Zm-44.13-.61-2.63,7h5.17Zm0,0-2.63,7h5.17ZM70,164a5,5,0,0,0-3.42-1.44c-2.91,0-5,2.38-5,5.59s2.13,5.59,5,5.59A5,5,0,0,0,70.27,172a6,6,0,0,0,1.33-3.82A5.52,5.52,0,0,0,70,164Zm36.18-.61-2.63,7h5.18Zm52.66.61a5,5,0,0,0-3.42-1.44c-2.91,0-5.05,2.38-5.05,5.59s2.13,5.59,5,5.59a5,5,0,0,0,3.72-1.67,6,6,0,0,0,1.33-3.82A5.52,5.52,0,0,0,158.86,164Zm28.54-1.34h-1.88v10.93h.63c2.36,0,3.36-.25,4.36-1a5.58,5.58,0,0,0,1.88-4.61C192.39,164.53,190.6,162.61,187.4,162.61Zm14.27,0h-2V168h1.75c2.11,0,3.26-.95,3.26-2.71S203.58,162.63,201.67,162.63Zm24.63.71-2.63,7h5.17Zm0,0-2.63,7h5.17Zm-24.63-.71h-2V168h1.75c2.11,0,3.26-.95,3.26-2.71S203.58,162.63,201.67,162.63Zm-14.27,0h-1.88v10.93h.63c2.36,0,3.36-.25,4.36-1a5.58,5.58,0,0,0,1.88-4.61C192.39,164.53,190.6,162.61,187.4,162.61ZM158.86,164a5,5,0,0,0-3.42-1.44c-2.91,0-5.05,2.38-5.05,5.59s2.13,5.59,5,5.59a5,5,0,0,0,3.72-1.67,6,6,0,0,0,1.33-3.82A5.52,5.52,0,0,0,158.86,164Zm-52.66-.61-2.63,7h5.18ZM70,164a5,5,0,0,0-3.42-1.44c-2.91,0-5,2.38-5,5.59s2.13,5.59,5,5.59A5,5,0,0,0,70.27,172a6,6,0,0,0,1.33-3.82A5.52,5.52,0,0,0,70,164Zm-44.13-.61-2.63,7h5.17Zm0,0-2.63,7h5.17ZM70,164a5,5,0,0,0-3.42-1.44c-2.91,0-5,2.38-5,5.59s2.13,5.59,5,5.59A5,5,0,0,0,70.27,172a6,6,0,0,0,1.33-3.82A5.52,5.52,0,0,0,70,164Zm36.18-.61-2.63,7h5.18Zm52.66.61a5,5,0,0,0-3.42-1.44c-2.91,0-5.05,2.38-5.05,5.59s2.13,5.59,5,5.59a5,5,0,0,0,3.72-1.67,6,6,0,0,0,1.33-3.82A5.52,5.52,0,0,0,158.86,164Zm28.54-1.34h-1.88v10.93h.63c2.36,0,3.36-.25,4.36-1a5.58,5.58,0,0,0,1.88-4.61C192.39,164.53,190.6,162.61,187.4,162.61Zm14.27,0h-2V168h1.75c2.11,0,3.26-.95,3.26-2.71S203.58,162.63,201.67,162.63Zm24.63.71-2.63,7h5.17Zm0,0-2.63,7h5.17Zm-24.63-.71h-2V168h1.75c2.11,0,3.26-.95,3.26-2.71S203.58,162.63,201.67,162.63Zm-14.27,0h-1.88v10.93h.63c2.36,0,3.36-.25,4.36-1a5.58,5.58,0,0,0,1.88-4.61C192.39,164.53,190.6,162.61,187.4,162.61ZM158.86,164a5,5,0,0,0-3.42-1.44c-2.91,0-5.05,2.38-5.05,5.59s2.13,5.59,5,5.59a5,5,0,0,0,3.72-1.67,6,6,0,0,0,1.33-3.82A5.52,5.52,0,0,0,158.86,164Zm-52.66-.61-2.63,7h5.18ZM70,164a5,5,0,0,0-3.42-1.44c-2.91,0-5,2.38-5,5.59s2.13,5.59,5,5.59A5,5,0,0,0,70.27,172a6,6,0,0,0,1.33-3.82A5.52,5.52,0,0,0,70,164Zm-44.13-.61-2.63,7h5.17Zm0,0-2.63,7h5.17ZM70,164a5,5,0,0,0-3.42-1.44c-2.91,0-5,2.38-5,5.59s2.13,5.59,5,5.59A5,5,0,0,0,70.27,172a6,6,0,0,0,1.33-3.82A5.52,5.52,0,0,0,70,164Zm36.18-.61-2.63,7h5.18Zm52.66.61a5,5,0,0,0-3.42-1.44c-2.91,0-5.05,2.38-5.05,5.59s2.13,5.59,5,5.59a5,5,0,0,0,3.72-1.67,6,6,0,0,0,1.33-3.82A5.52,5.52,0,0,0,158.86,164Zm28.54-1.34h-1.88v10.93h.63c2.36,0,3.36-.25,4.36-1a5.58,5.58,0,0,0,1.88-4.61C192.39,164.53,190.6,162.61,187.4,162.61Zm14.27,0h-2V168h1.75c2.11,0,3.26-.95,3.26-2.71S203.58,162.63,201.67,162.63Zm24.63.71-2.63,7h5.17Zm0,0-2.63,7h5.17Zm-24.63-.71h-2V168h1.75c2.11,0,3.26-.95,3.26-2.71S203.58,162.63,201.67,162.63Zm-14.27,0h-1.88v10.93h.63c2.36,0,3.36-.25,4.36-1a5.58,5.58,0,0,0,1.88-4.61C192.39,164.53,190.6,162.61,187.4,162.61ZM158.86,164a5,5,0,0,0-3.42-1.44c-2.91,0-5.05,2.38-5.05,5.59s2.13,5.59,5,5.59a5,5,0,0,0,3.72-1.67,6,6,0,0,0,1.33-3.82A5.52,5.52,0,0,0,158.86,164Zm-52.66-.61-2.63,7h5.18ZM70,164a5,5,0,0,0-3.42-1.44c-2.91,0-5,2.38-5,5.59s2.13,5.59,5,5.59A5,5,0,0,0,70.27,172a6,6,0,0,0,1.33-3.82A5.52,5.52,0,0,0,70,164Zm-44.13-.61-2.63,7h5.17Zm0,0-2.63,7h5.17ZM70,164a5,5,0,0,0-3.42-1.44c-2.91,0-5,2.38-5,5.59s2.13,5.59,5,5.59A5,5,0,0,0,70.27,172a6,6,0,0,0,1.33-3.82A5.52,5.52,0,0,0,70,164Zm36.18-.61-2.63,7h5.18Zm52.66.61a5,5,0,0,0-3.42-1.44c-2.91,0-5.05,2.38-5.05,5.59s2.13,5.59,5,5.59a5,5,0,0,0,3.72-1.67,6,6,0,0,0,1.33-3.82A5.52,5.52,0,0,0,158.86,164Zm28.54-1.34h-1.88v10.93h.63c2.36,0,3.36-.25,4.36-1a5.58,5.58,0,0,0,1.88-4.61C192.39,164.53,190.6,162.61,187.4,162.61Zm14.27,0h-2V168h1.75c2.11,0,3.26-.95,3.26-2.71S203.58,162.63,201.67,162.63Zm24.63.71-2.63,7h5.17Zm0,0-2.63,7h5.17Zm-24.63-.71h-2V168h1.75c2.11,0,3.26-.95,3.26-2.71S203.58,162.63,201.67,162.63Zm-14.27,0h-1.88v10.93h.63c2.36,0,3.36-.25,4.36-1a5.58,5.58,0,0,0,1.88-4.61C192.39,164.53,190.6,162.61,187.4,162.61ZM158.86,164a5,5,0,0,0-3.42-1.44c-2.91,0-5.05,2.38-5.05,5.59s2.13,5.59,5,5.59a5,5,0,0,0,3.72-1.67,6,6,0,0,0,1.33-3.82A5.52,5.52,0,0,0,158.86,164Zm-52.66-.61-2.63,7h5.18ZM70,164a5,5,0,0,0-3.42-1.44c-2.91,0-5,2.38-5,5.59s2.13,5.59,5,5.59A5,5,0,0,0,70.27,172a6,6,0,0,0,1.33-3.82A5.52,5.52,0,0,0,70,164Zm-44.13-.61-2.63,7h5.17Zm0,0-2.63,7h5.17ZM70,164a5,5,0,0,0-3.42-1.44c-2.91,0-5,2.38-5,5.59s2.13,5.59,5,5.59A5,5,0,0,0,70.27,172a6,6,0,0,0,1.33-3.82A5.52,5.52,0,0,0,70,164Zm36.18-.61-2.63,7h5.18Zm52.66.61a5,5,0,0,0-3.42-1.44c-2.91,0-5.05,2.38-5.05,5.59s2.13,5.59,5,5.59a5,5,0,0,0,3.72-1.67,6,6,0,0,0,1.33-3.82A5.52,5.52,0,0,0,158.86,164Zm28.54-1.34h-1.88v10.93h.63c2.36,0,3.36-.25,4.36-1a5.58,5.58,0,0,0,1.88-4.61C192.39,164.53,190.6,162.61,187.4,162.61Zm14.27,0h-2V168h1.75c2.11,0,3.26-.95,3.26-2.71S203.58,162.63,201.67,162.63Zm24.63.71-2.63,7h5.17Zm0,0-2.63,7h5.17Zm-24.63-.71h-2V168h1.75c2.11,0,3.26-.95,3.26-2.71S203.58,162.63,201.67,162.63Zm-14.27,0h-1.88v10.93h.63c2.36,0,3.36-.25,4.36-1a5.58,5.58,0,0,0,1.88-4.61C192.39,164.53,190.6,162.61,187.4,162.61ZM158.86,164a5,5,0,0,0-3.42-1.44c-2.91,0-5.05,2.38-5.05,5.59s2.13,5.59,5,5.59a5,5,0,0,0,3.72-1.67,6,6,0,0,0,1.33-3.82A5.52,5.52,0,0,0,158.86,164Zm-52.66-.61-2.63,7h5.18ZM70,164a5,5,0,0,0-3.42-1.44c-2.91,0-5,2.38-5,5.59s2.13,5.59,5,5.59A5,5,0,0,0,70.27,172a6,6,0,0,0,1.33-3.82A5.52,5.52,0,0,0,70,164Zm-44.13-.61-2.63,7h5.17Zm0,0-2.63,7h5.17ZM70,164a5,5,0,0,0-3.42-1.44c-2.91,0-5,2.38-5,5.59s2.13,5.59,5,5.59A5,5,0,0,0,70.27,172a6,6,0,0,0,1.33-3.82A5.52,5.52,0,0,0,70,164Zm36.18-.61-2.63,7h5.18Zm52.66.61a5,5,0,0,0-3.42-1.44c-2.91,0-5.05,2.38-5.05,5.59s2.13,5.59,5,5.59a5,5,0,0,0,3.72-1.67,6,6,0,0,0,1.33-3.82A5.52,5.52,0,0,0,158.86,164Zm28.54-1.34h-1.88v10.93h.63c2.36,0,3.36-.25,4.36-1a5.58,5.58,0,0,0,1.88-4.61C192.39,164.53,190.6,162.61,187.4,162.61Zm14.27,0h-2V168h1.75c2.11,0,3.26-.95,3.26-2.71S203.58,162.63,201.67,162.63Zm24.63.71-2.63,7h5.17Zm0,0-2.63,7h5.17Zm-24.63-.71h-2V168h1.75c2.11,0,3.26-.95,3.26-2.71S203.58,162.63,201.67,162.63Zm-14.27,0h-1.88v10.93h.63c2.36,0,3.36-.25,4.36-1a5.58,5.58,0,0,0,1.88-4.61C192.39,164.53,190.6,162.61,187.4,162.61ZM158.86,164a5,5,0,0,0-3.42-1.44c-2.91,0-5.05,2.38-5.05,5.59s2.13,5.59,5,5.59a5,5,0,0,0,3.72-1.67,6,6,0,0,0,1.33-3.82A5.52,5.52,0,0,0,158.86,164Zm-52.66-.61-2.63,7h5.18ZM70,164a5,5,0,0,0-3.42-1.44c-2.91,0-5,2.38-5,5.59s2.13,5.59,5,5.59A5,5,0,0,0,70.27,172a6,6,0,0,0,1.33-3.82A5.52,5.52,0,0,0,70,164Zm-44.13-.61-2.63,7h5.17Zm0,0-2.63,7h5.17ZM70,164a5,5,0,0,0-3.42-1.44c-2.91,0-5,2.38-5,5.59s2.13,5.59,5,5.59A5,5,0,0,0,70.27,172a6,6,0,0,0,1.33-3.82A5.52,5.52,0,0,0,70,164Zm36.18-.61-2.63,7h5.18Zm52.66.61a5,5,0,0,0-3.42-1.44c-2.91,0-5.05,2.38-5.05,5.59s2.13,5.59,5,5.59a5,5,0,0,0,3.72-1.67,6,6,0,0,0,1.33-3.82A5.52,5.52,0,0,0,158.86,164Zm28.54-1.34h-1.88v10.93h.63c2.36,0,3.36-.25,4.36-1a5.58,5.58,0,0,0,1.88-4.61C192.39,164.53,190.6,162.61,187.4,162.61Zm14.27,0h-2V168h1.75c2.11,0,3.26-.95,3.26-2.71S203.58,162.63,201.67,162.63Zm24.63.71-2.63,7h5.17Zm0,0-2.63,7h5.17Zm-24.63-.71h-2V168h1.75c2.11,0,3.26-.95,3.26-2.71S203.58,162.63,201.67,162.63Zm-14.27,0h-1.88v10.93h.63c2.36,0,3.36-.25,4.36-1a5.58,5.58,0,0,0,1.88-4.61C192.39,164.53,190.6,162.61,187.4,162.61ZM158.86,164a5,5,0,0,0-3.42-1.44c-2.91,0-5.05,2.38-5.05,5.59s2.13,5.59,5,5.59a5,5,0,0,0,3.72-1.67,6,6,0,0,0,1.33-3.82A5.52,5.52,0,0,0,158.86,164Zm-52.66-.61-2.63,7h5.18ZM70,164a5,5,0,0,0-3.42-1.44c-2.91,0-5,2.38-5,5.59s2.13,5.59,5,5.59A5,5,0,0,0,70.27,172a6,6,0,0,0,1.33-3.82A5.52,5.52,0,0,0,70,164Zm-44.13-.61-2.63,7h5.17Zm0,0-2.63,7h5.17ZM70,164a5,5,0,0,0-3.42-1.44c-2.91,0-5,2.38-5,5.59s2.13,5.59,5,5.59A5,5,0,0,0,70.27,172a6,6,0,0,0,1.33-3.82A5.52,5.52,0,0,0,70,164Zm36.18-.61-2.63,7h5.18Zm52.66.61a5,5,0,0,0-3.42-1.44c-2.91,0-5.05,2.38-5.05,5.59s2.13,5.59,5,5.59a5,5,0,0,0,3.72-1.67,6,6,0,0,0,1.33-3.82A5.52,5.52,0,0,0,158.86,164Zm28.54-1.34h-1.88v10.93h.63c2.36,0,3.36-.25,4.36-1a5.58,5.58,0,0,0,1.88-4.61C192.39,164.53,190.6,162.61,187.4,162.61Zm14.27,0h-2V168h1.75c2.11,0,3.26-.95,3.26-2.71S203.58,162.63,201.67,162.63Zm24.63.71-2.63,7h5.17Zm0,0-2.63,7h5.17Zm-24.63-.71h-2V168h1.75c2.11,0,3.26-.95,3.26-2.71S203.58,162.63,201.67,162.63Zm-14.27,0h-1.88v10.93h.63c2.36,0,3.36-.25,4.36-1a5.58,5.58,0,0,0,1.88-4.61C192.39,164.53,190.6,162.61,187.4,162.61ZM158.86,164a5,5,0,0,0-3.42-1.44c-2.91,0-5.05,2.38-5.05,5.59s2.13,5.59,5,5.59a5,5,0,0,0,3.72-1.67,6,6,0,0,0,1.33-3.82A5.52,5.52,0,0,0,158.86,164Zm-52.66-.61-2.63,7h5.18ZM70,164a5,5,0,0,0-3.42-1.44c-2.91,0-5,2.38-5,5.59s2.13,5.59,5,5.59A5,5,0,0,0,70.27,172a6,6,0,0,0,1.33-3.82A5.52,5.52,0,0,0,70,164Zm-44.13-.61-2.63,7h5.17Zm0,0-2.63,7h5.17ZM70,164a5,5,0,0,0-3.42-1.44c-2.91,0-5,2.38-5,5.59s2.13,5.59,5,5.59A5,5,0,0,0,70.27,172a6,6,0,0,0,1.33-3.82A5.52,5.52,0,0,0,70,164Zm36.18-.61-2.63,7h5.18Zm52.66.61a5,5,0,0,0-3.42-1.44c-2.91,0-5.05,2.38-5.05,5.59s2.13,5.59,5,5.59a5,5,0,0,0,3.72-1.67,6,6,0,0,0,1.33-3.82A5.52,5.52,0,0,0,158.86,164Zm28.54-1.34h-1.88v10.93h.63c2.36,0,3.36-.25,4.36-1a5.58,5.58,0,0,0,1.88-4.61C192.39,164.53,190.6,162.61,187.4,162.61Zm14.27,0h-2V168h1.75c2.11,0,3.26-.95,3.26-2.71S203.58,162.63,201.67,162.63Zm24.63.71-2.63,7h5.17Zm0,0-2.63,7h5.17Zm-24.63-.71h-2V168h1.75c2.11,0,3.26-.95,3.26-2.71S203.58,162.63,201.67,162.63Zm-14.27,0h-1.88v10.93h.63c2.36,0,3.36-.25,4.36-1a5.58,5.58,0,0,0,1.88-4.61C192.39,164.53,190.6,162.61,187.4,162.61ZM158.86,164a5,5,0,0,0-3.42-1.44c-2.91,0-5.05,2.38-5.05,5.59s2.13,5.59,5,5.59a5,5,0,0,0,3.72-1.67,6,6,0,0,0,1.33-3.82A5.52,5.52,0,0,0,158.86,164Zm-52.66-.61-2.63,7h5.18ZM70,164a5,5,0,0,0-3.42-1.44c-2.91,0-5,2.38-5,5.59s2.13,5.59,5,5.59A5,5,0,0,0,70.27,172a6,6,0,0,0,1.33-3.82A5.52,5.52,0,0,0,70,164Zm-44.13-.61-2.63,7h5.17ZM0,154.2v29.87H281.7V154.2ZM19.66,175l5.23-13.91H27L32.09,175h-2L29,171.83H22.74L21.47,175Zm29.48.15L44,164.84V175H42.26V161.13H44l5.15,10.43,5.22-10.43h1.71V175H54.32V164.86Zm10.62-7c0-4.15,2.93-7.28,6.88-7.28a6.86,6.86,0,0,1,5.13,2.4,7.13,7.13,0,0,1,1.62,4.94,7,7,0,0,1-2.35,5.4,6.75,6.75,0,0,1-4.44,1.67,7,7,0,0,1-5.38-2.6A7.19,7.19,0,0,1,59.76,168.16ZM77.08,175V161.13h1.61l7.43,10.47V161.13h1.75V175H86.32L78.83,164.4V175Zm13.71-12.41v-1.5h8.82v1.5H96.08V175H94.33V162.63ZM100,175l5.23-13.91h2.1l5.1,13.91h-2l-1.14-3.21h-6.24L101.77,175Zm20.94-1.35a5,5,0,0,0,4-2.05,4.77,4.77,0,0,0,.9-2.62H121v-1.51h6.64c0,.3,0,.67,0,.8a6.7,6.7,0,0,1-6.68,7,6.8,6.8,0,0,1-6.86-7.17c0-4.22,2.88-7.24,6.86-7.24a6.53,6.53,0,0,1,5.24,2.52l-1.32,1.07a5.87,5.87,0,0,0-1.16-1.11,4.74,4.74,0,0,0-2.76-.87c-2.88,0-5.07,2.41-5.07,5.61S118.06,173.69,120.9,173.69Zm17.37-6.41v1.5h-5.48v4.76h5.48V175H131V161.13h7.23v1.5h-5.48v4.65Zm10.32.88c0-4.15,2.94-7.28,6.89-7.28a6.88,6.88,0,0,1,5.13,2.4,7.13,7.13,0,0,1,1.62,4.94,6.92,6.92,0,0,1-2.36,5.4,6.75,6.75,0,0,1-4.43,1.67,7,7,0,0,1-5.39-2.6A7.25,7.25,0,0,1,148.59,168.16Zm24.51-.88v1.5h-5.43V175h-1.75V161.13h7.18v1.5h-5.43v4.65ZM183.77,175V161.13h3.7c4.19,0,6.71,2.55,6.71,6.74a7.21,7.21,0,0,1-2.19,5.57,7,7,0,0,1-4.84,1.6Zm23.48,0H205l-5.41-5.84V175h-1.75V161.13h3.8c3,0,4.75,1.52,4.75,4.05a3.78,3.78,0,0,1-2,3.5,5.87,5.87,0,0,1-2.56.59Zm10.29-7.76v1.5h-5.49v4.76h5.49V175H210.3V161.13h7.24v1.5h-5.49v4.65Zm2.52,7.76,5.24-13.91h2.08L232.49,175h-2l-1.15-3.21h-6.23L221.88,175Zm22.19.15-5.13-10.35V175h-1.75V161.13h1.73l5.15,10.43,5.21-10.43h1.71V175h-1.75V164.86Zm14.68.1a3.92,3.92,0,0,1-3.71-1.88,3.34,3.34,0,0,1-.48-1.81v-.29h1.67a2.25,2.25,0,0,0,2.46,2.42,2.42,2.42,0,0,0,2.67-2.36c0-1.21-.63-1.77-2.82-2.5a7,7,0,0,1-2.81-1.4,3.46,3.46,0,0,1-1.09-2.63,4.14,4.14,0,0,1,8.28,0h-1.75a2.51,2.51,0,0,0-.34-1.43,2.4,2.4,0,0,0-2.06-1,2.24,2.24,0,0,0-2.36,2.28,1.92,1.92,0,0,0,.8,1.6,7.81,7.81,0,0,0,2.23,1,6.09,6.09,0,0,1,2.75,1.5,3.59,3.59,0,0,1,.94,2.46C261.31,173.66,259.54,175.29,256.93,175.29ZM226.3,163.34l-2.63,7h5.17Zm-24.63-.71h-2V168h1.75c2.11,0,3.26-.95,3.26-2.71S203.58,162.63,201.67,162.63Zm-14.27,0h-1.88v10.93h.63c2.36,0,3.36-.25,4.36-1a5.58,5.58,0,0,0,1.88-4.61C192.39,164.53,190.6,162.61,187.4,162.61Zm-32,11.08a5,5,0,0,0,3.72-1.67,6,6,0,0,0,1.33-3.82,5.52,5.52,0,0,0-1.58-4.25,5,5,0,0,0-3.42-1.44c-2.91,0-5.05,2.38-5.05,5.59S152.52,173.69,155.39,173.69ZM106.2,163.34l-2.63,7h5.18ZM66.55,173.69A5,5,0,0,0,70.27,172a6,6,0,0,0,1.33-3.82A5.52,5.52,0,0,0,70,164a5,5,0,0,0-3.42-1.44c-2.91,0-5,2.38-5,5.59S63.68,173.69,66.55,173.69ZM25.89,163.34l-2.63,7h5.17Zm0,0-2.63,7h5.17ZM70,164a5,5,0,0,0-3.42-1.44c-2.91,0-5,2.38-5,5.59s2.13,5.59,5,5.59A5,5,0,0,0,70.27,172a6,6,0,0,0,1.33-3.82A5.52,5.52,0,0,0,70,164Zm36.18-.61-2.63,7h5.18Zm52.66.61a5,5,0,0,0-3.42-1.44c-2.91,0-5.05,2.38-5.05,5.59s2.13,5.59,5,5.59a5,5,0,0,0,3.72-1.67,6,6,0,0,0,1.33-3.82A5.52,5.52,0,0,0,158.86,164Zm28.54-1.34h-1.88v10.93h.63c2.36,0,3.36-.25,4.36-1a5.58,5.58,0,0,0,1.88-4.61C192.39,164.53,190.6,162.61,187.4,162.61Zm14.27,0h-2V168h1.75c2.11,0,3.26-.95,3.26-2.71S203.58,162.63,201.67,162.63Zm24.63.71-2.63,7h5.17Zm0,0-2.63,7h5.17Zm-24.63-.71h-2V168h1.75c2.11,0,3.26-.95,3.26-2.71S203.58,162.63,201.67,162.63Zm-14.27,0h-1.88v10.93h.63c2.36,0,3.36-.25,4.36-1a5.58,5.58,0,0,0,1.88-4.61C192.39,164.53,190.6,162.61,187.4,162.61ZM158.86,164a5,5,0,0,0-3.42-1.44c-2.91,0-5.05,2.38-5.05,5.59s2.13,5.59,5,5.59a5,5,0,0,0,3.72-1.67,6,6,0,0,0,1.33-3.82A5.52,5.52,0,0,0,158.86,164Zm-52.66-.61-2.63,7h5.18ZM70,164a5,5,0,0,0-3.42-1.44c-2.91,0-5,2.38-5,5.59s2.13,5.59,5,5.59A5,5,0,0,0,70.27,172a6,6,0,0,0,1.33-3.82A5.52,5.52,0,0,0,70,164Zm-44.13-.61-2.63,7h5.17Zm0,0-2.63,7h5.17ZM70,164a5,5,0,0,0-3.42-1.44c-2.91,0-5,2.38-5,5.59s2.13,5.59,5,5.59A5,5,0,0,0,70.27,172a6,6,0,0,0,1.33-3.82A5.52,5.52,0,0,0,70,164Zm36.18-.61-2.63,7h5.18Zm52.66.61a5,5,0,0,0-3.42-1.44c-2.91,0-5.05,2.38-5.05,5.59s2.13,5.59,5,5.59a5,5,0,0,0,3.72-1.67,6,6,0,0,0,1.33-3.82A5.52,5.52,0,0,0,158.86,164Zm28.54-1.34h-1.88v10.93h.63c2.36,0,3.36-.25,4.36-1a5.58,5.58,0,0,0,1.88-4.61C192.39,164.53,190.6,162.61,187.4,162.61Zm14.27,0h-2V168h1.75c2.11,0,3.26-.95,3.26-2.71S203.58,162.63,201.67,162.63Zm24.63.71-2.63,7h5.17Zm0,0-2.63,7h5.17Zm-24.63-.71h-2V168h1.75c2.11,0,3.26-.95,3.26-2.71S203.58,162.63,201.67,162.63Zm-14.27,0h-1.88v10.93h.63c2.36,0,3.36-.25,4.36-1a5.58,5.58,0,0,0,1.88-4.61C192.39,164.53,190.6,162.61,187.4,162.61ZM158.86,164a5,5,0,0,0-3.42-1.44c-2.91,0-5.05,2.38-5.05,5.59s2.13,5.59,5,5.59a5,5,0,0,0,3.72-1.67,6,6,0,0,0,1.33-3.82A5.52,5.52,0,0,0,158.86,164Zm-52.66-.61-2.63,7h5.18ZM70,164a5,5,0,0,0-3.42-1.44c-2.91,0-5,2.38-5,5.59s2.13,5.59,5,5.59A5,5,0,0,0,70.27,172a6,6,0,0,0,1.33-3.82A5.52,5.52,0,0,0,70,164Zm-44.13-.61-2.63,7h5.17Zm0,0-2.63,7h5.17ZM70,164a5,5,0,0,0-3.42-1.44c-2.91,0-5,2.38-5,5.59s2.13,5.59,5,5.59A5,5,0,0,0,70.27,172a6,6,0,0,0,1.33-3.82A5.52,5.52,0,0,0,70,164Zm36.18-.61-2.63,7h5.18Zm52.66.61a5,5,0,0,0-3.42-1.44c-2.91,0-5.05,2.38-5.05,5.59s2.13,5.59,5,5.59a5,5,0,0,0,3.72-1.67,6,6,0,0,0,1.33-3.82A5.52,5.52,0,0,0,158.86,164Zm28.54-1.34h-1.88v10.93h.63c2.36,0,3.36-.25,4.36-1a5.58,5.58,0,0,0,1.88-4.61C192.39,164.53,190.6,162.61,187.4,162.61Zm14.27,0h-2V168h1.75c2.11,0,3.26-.95,3.26-2.71S203.58,162.63,201.67,162.63Zm24.63.71-2.63,7h5.17Zm0,0-2.63,7h5.17Zm-24.63-.71h-2V168h1.75c2.11,0,3.26-.95,3.26-2.71S203.58,162.63,201.67,162.63Zm-14.27,0h-1.88v10.93h.63c2.36,0,3.36-.25,4.36-1a5.58,5.58,0,0,0,1.88-4.61C192.39,164.53,190.6,162.61,187.4,162.61ZM158.86,164a5,5,0,0,0-3.42-1.44c-2.91,0-5.05,2.38-5.05,5.59s2.13,5.59,5,5.59a5,5,0,0,0,3.72-1.67,6,6,0,0,0,1.33-3.82A5.52,5.52,0,0,0,158.86,164Zm-52.66-.61-2.63,7h5.18ZM70,164a5,5,0,0,0-3.42-1.44c-2.91,0-5,2.38-5,5.59s2.13,5.59,5,5.59A5,5,0,0,0,70.27,172a6,6,0,0,0,1.33-3.82A5.52,5.52,0,0,0,70,164Zm-44.13-.61-2.63,7h5.17Zm0,0-2.63,7h5.17ZM70,164a5,5,0,0,0-3.42-1.44c-2.91,0-5,2.38-5,5.59s2.13,5.59,5,5.59A5,5,0,0,0,70.27,172a6,6,0,0,0,1.33-3.82A5.52,5.52,0,0,0,70,164Zm36.18-.61-2.63,7h5.18Zm52.66.61a5,5,0,0,0-3.42-1.44c-2.91,0-5.05,2.38-5.05,5.59s2.13,5.59,5,5.59a5,5,0,0,0,3.72-1.67,6,6,0,0,0,1.33-3.82A5.52,5.52,0,0,0,158.86,164Zm28.54-1.34h-1.88v10.93h.63c2.36,0,3.36-.25,4.36-1a5.58,5.58,0,0,0,1.88-4.61C192.39,164.53,190.6,162.61,187.4,162.61Zm14.27,0h-2V168h1.75c2.11,0,3.26-.95,3.26-2.71S203.58,162.63,201.67,162.63Zm24.63.71-2.63,7h5.17Zm0,0-2.63,7h5.17Zm-24.63-.71h-2V168h1.75c2.11,0,3.26-.95,3.26-2.71S203.58,162.63,201.67,162.63Zm-14.27,0h-1.88v10.93h.63c2.36,0,3.36-.25,4.36-1a5.58,5.58,0,0,0,1.88-4.61C192.39,164.53,190.6,162.61,187.4,162.61ZM158.86,164a5,5,0,0,0-3.42-1.44c-2.91,0-5.05,2.38-5.05,5.59s2.13,5.59,5,5.59a5,5,0,0,0,3.72-1.67,6,6,0,0,0,1.33-3.82A5.52,5.52,0,0,0,158.86,164Zm-52.66-.61-2.63,7h5.18ZM70,164a5,5,0,0,0-3.42-1.44c-2.91,0-5,2.38-5,5.59s2.13,5.59,5,5.59A5,5,0,0,0,70.27,172a6,6,0,0,0,1.33-3.82A5.52,5.52,0,0,0,70,164Zm-44.13-.61-2.63,7h5.17Zm0,0-2.63,7h5.17ZM70,164a5,5,0,0,0-3.42-1.44c-2.91,0-5,2.38-5,5.59s2.13,5.59,5,5.59A5,5,0,0,0,70.27,172a6,6,0,0,0,1.33-3.82A5.52,5.52,0,0,0,70,164Zm36.18-.61-2.63,7h5.18Zm52.66.61a5,5,0,0,0-3.42-1.44c-2.91,0-5.05,2.38-5.05,5.59s2.13,5.59,5,5.59a5,5,0,0,0,3.72-1.67,6,6,0,0,0,1.33-3.82A5.52,5.52,0,0,0,158.86,164Zm28.54-1.34h-1.88v10.93h.63c2.36,0,3.36-.25,4.36-1a5.58,5.58,0,0,0,1.88-4.61C192.39,164.53,190.6,162.61,187.4,162.61Zm14.27,0h-2V168h1.75c2.11,0,3.26-.95,3.26-2.71S203.58,162.63,201.67,162.63Zm24.63.71-2.63,7h5.17Zm0,0-2.63,7h5.17Zm-24.63-.71h-2V168h1.75c2.11,0,3.26-.95,3.26-2.71S203.58,162.63,201.67,162.63Zm-14.27,0h-1.88v10.93h.63c2.36,0,3.36-.25,4.36-1a5.58,5.58,0,0,0,1.88-4.61C192.39,164.53,190.6,162.61,187.4,162.61ZM158.86,164a5,5,0,0,0-3.42-1.44c-2.91,0-5.05,2.38-5.05,5.59s2.13,5.59,5,5.59a5,5,0,0,0,3.72-1.67,6,6,0,0,0,1.33-3.82A5.52,5.52,0,0,0,158.86,164Zm-52.66-.61-2.63,7h5.18ZM70,164a5,5,0,0,0-3.42-1.44c-2.91,0-5,2.38-5,5.59s2.13,5.59,5,5.59A5,5,0,0,0,70.27,172a6,6,0,0,0,1.33-3.82A5.52,5.52,0,0,0,70,164Zm-44.13-.61-2.63,7h5.17Zm0,0-2.63,7h5.17ZM70,164a5,5,0,0,0-3.42-1.44c-2.91,0-5,2.38-5,5.59s2.13,5.59,5,5.59A5,5,0,0,0,70.27,172a6,6,0,0,0,1.33-3.82A5.52,5.52,0,0,0,70,164Zm36.18-.61-2.63,7h5.18Zm52.66.61a5,5,0,0,0-3.42-1.44c-2.91,0-5.05,2.38-5.05,5.59s2.13,5.59,5,5.59a5,5,0,0,0,3.72-1.67,6,6,0,0,0,1.33-3.82A5.52,5.52,0,0,0,158.86,164Zm28.54-1.34h-1.88v10.93h.63c2.36,0,3.36-.25,4.36-1a5.58,5.58,0,0,0,1.88-4.61C192.39,164.53,190.6,162.61,187.4,162.61Zm14.27,0h-2V168h1.75c2.11,0,3.26-.95,3.26-2.71S203.58,162.63,201.67,162.63Zm24.63.71-2.63,7h5.17Zm0,0-2.63,7h5.17Zm-24.63-.71h-2V168h1.75c2.11,0,3.26-.95,3.26-2.71S203.58,162.63,201.67,162.63Zm-14.27,0h-1.88v10.93h.63c2.36,0,3.36-.25,4.36-1a5.58,5.58,0,0,0,1.88-4.61C192.39,164.53,190.6,162.61,187.4,162.61ZM158.86,164a5,5,0,0,0-3.42-1.44c-2.91,0-5.05,2.38-5.05,5.59s2.13,5.59,5,5.59a5,5,0,0,0,3.72-1.67,6,6,0,0,0,1.33-3.82A5.52,5.52,0,0,0,158.86,164Zm-52.66-.61-2.63,7h5.18ZM70,164a5,5,0,0,0-3.42-1.44c-2.91,0-5,2.38-5,5.59s2.13,5.59,5,5.59A5,5,0,0,0,70.27,172a6,6,0,0,0,1.33-3.82A5.52,5.52,0,0,0,70,164Zm-44.13-.61-2.63,7h5.17Zm0,0-2.63,7h5.17ZM70,164a5,5,0,0,0-3.42-1.44c-2.91,0-5,2.38-5,5.59s2.13,5.59,5,5.59A5,5,0,0,0,70.27,172a6,6,0,0,0,1.33-3.82A5.52,5.52,0,0,0,70,164Zm36.18-.61-2.63,7h5.18Zm52.66.61a5,5,0,0,0-3.42-1.44c-2.91,0-5.05,2.38-5.05,5.59s2.13,5.59,5,5.59a5,5,0,0,0,3.72-1.67,6,6,0,0,0,1.33-3.82A5.52,5.52,0,0,0,158.86,164Zm28.54-1.34h-1.88v10.93h.63c2.36,0,3.36-.25,4.36-1a5.58,5.58,0,0,0,1.88-4.61C192.39,164.53,190.6,162.61,187.4,162.61Zm14.27,0h-2V168h1.75c2.11,0,3.26-.95,3.26-2.71S203.58,162.63,201.67,162.63Zm24.63.71-2.63,7h5.17Zm0,0-2.63,7h5.17Zm-24.63-.71h-2V168h1.75c2.11,0,3.26-.95,3.26-2.71S203.58,162.63,201.67,162.63Zm-14.27,0h-1.88v10.93h.63c2.36,0,3.36-.25,4.36-1a5.58,5.58,0,0,0,1.88-4.61C192.39,164.53,190.6,162.61,187.4,162.61ZM158.86,164a5,5,0,0,0-3.42-1.44c-2.91,0-5.05,2.38-5.05,5.59s2.13,5.59,5,5.59a5,5,0,0,0,3.72-1.67,6,6,0,0,0,1.33-3.82A5.52,5.52,0,0,0,158.86,164Zm-52.66-.61-2.63,7h5.18ZM70,164a5,5,0,0,0-3.42-1.44c-2.91,0-5,2.38-5,5.59s2.13,5.59,5,5.59A5,5,0,0,0,70.27,172a6,6,0,0,0,1.33-3.82A5.52,5.52,0,0,0,70,164Zm-44.13-.61-2.63,7h5.17Zm0,0-2.63,7h5.17ZM70,164a5,5,0,0,0-3.42-1.44c-2.91,0-5,2.38-5,5.59s2.13,5.59,5,5.59A5,5,0,0,0,70.27,172a6,6,0,0,0,1.33-3.82A5.52,5.52,0,0,0,70,164Zm36.18-.61-2.63,7h5.18Zm52.66.61a5,5,0,0,0-3.42-1.44c-2.91,0-5.05,2.38-5.05,5.59s2.13,5.59,5,5.59a5,5,0,0,0,3.72-1.67,6,6,0,0,0,1.33-3.82A5.52,5.52,0,0,0,158.86,164Zm28.54-1.34h-1.88v10.93h.63c2.36,0,3.36-.25,4.36-1a5.58,5.58,0,0,0,1.88-4.61C192.39,164.53,190.6,162.61,187.4,162.61Zm14.27,0h-2V168h1.75c2.11,0,3.26-.95,3.26-2.71S203.58,162.63,201.67,162.63Zm24.63.71-2.63,7h5.17Zm0,0-2.63,7h5.17Zm-24.63-.71h-2V168h1.75c2.11,0,3.26-.95,3.26-2.71S203.58,162.63,201.67,162.63Zm-14.27,0h-1.88v10.93h.63c2.36,0,3.36-.25,4.36-1a5.58,5.58,0,0,0,1.88-4.61C192.39,164.53,190.6,162.61,187.4,162.61ZM158.86,164a5,5,0,0,0-3.42-1.44c-2.91,0-5.05,2.38-5.05,5.59s2.13,5.59,5,5.59a5,5,0,0,0,3.72-1.67,6,6,0,0,0,1.33-3.82A5.52,5.52,0,0,0,158.86,164Zm-52.66-.61-2.63,7h5.18ZM70,164a5,5,0,0,0-3.42-1.44c-2.91,0-5,2.38-5,5.59s2.13,5.59,5,5.59A5,5,0,0,0,70.27,172a6,6,0,0,0,1.33-3.82A5.52,5.52,0,0,0,70,164Zm-44.13-.61-2.63,7h5.17Zm0,0-2.63,7h5.17ZM70,164a5,5,0,0,0-3.42-1.44c-2.91,0-5,2.38-5,5.59s2.13,5.59,5,5.59A5,5,0,0,0,70.27,172a6,6,0,0,0,1.33-3.82A5.52,5.52,0,0,0,70,164Zm36.18-.61-2.63,7h5.18Zm81.2-.73h-1.88v10.93h.63c2.36,0,3.36-.25,4.36-1a5.58,5.58,0,0,0,1.88-4.61C192.39,164.53,190.6,162.61,187.4,162.61Zm14.27,0h-2V168h1.75c2.11,0,3.26-.95,3.26-2.71S203.58,162.63,201.67,162.63Zm24.63.71-2.63,7h5.17Zm0,0-2.63,7h5.17Zm-24.63-.71h-2V168h1.75c2.11,0,3.26-.95,3.26-2.71S203.58,162.63,201.67,162.63Zm-14.27,0h-1.88v10.93h.63c2.36,0,3.36-.25,4.36-1a5.58,5.58,0,0,0,1.88-4.61C192.39,164.53,190.6,162.61,187.4,162.61Zm-81.2.73-2.63,7h5.18ZM70,164a5,5,0,0,0-3.42-1.44c-2.91,0-5,2.38-5,5.59s2.13,5.59,5,5.59A5,5,0,0,0,70.27,172a6,6,0,0,0,1.33-3.82A5.52,5.52,0,0,0,70,164Zm-44.13-.61-2.63,7h5.17Zm0,0-2.63,7h5.17ZM70,164a5,5,0,0,0-3.42-1.44c-2.91,0-5,2.38-5,5.59s2.13,5.59,5,5.59A5,5,0,0,0,70.27,172a6,6,0,0,0,1.33-3.82A5.52,5.52,0,0,0,70,164Zm36.18-.61-2.63,7h5.18Zm120.1,0-2.63,7h5.17Zm0,0-2.63,7h5.17Zm-120.1,0-2.63,7h5.18ZM70,164a5,5,0,0,0-3.42-1.44c-2.91,0-5,2.38-5,5.59s2.13,5.59,5,5.59A5,5,0,0,0,70.27,172a6,6,0,0,0,1.33-3.82A5.52,5.52,0,0,0,70,164Zm-44.13-.61-2.63,7h5.17Zm0,0-2.63,7h5.17ZM70,164a5,5,0,0,0-3.42-1.44c-2.91,0-5,2.38-5,5.59s2.13,5.59,5,5.59A5,5,0,0,0,70.27,172a6,6,0,0,0,1.33-3.82A5.52,5.52,0,0,0,70,164Zm36.18-.61-2.63,7h5.18Zm0,0-2.63,7h5.18ZM70,164a5,5,0,0,0-3.42-1.44c-2.91,0-5,2.38-5,5.59s2.13,5.59,5,5.59A5,5,0,0,0,70.27,172a6,6,0,0,0,1.33-3.82A5.52,5.52,0,0,0,70,164Zm-44.13-.61-2.63,7h5.17Zm0,0-2.63,7h5.17ZM70,164a5,5,0,0,0-3.42-1.44c-2.91,0-5,2.38-5,5.59s2.13,5.59,5,5.59A5,5,0,0,0,70.27,172a6,6,0,0,0,1.33-3.82A5.52,5.52,0,0,0,70,164Zm36.18-.61-2.63,7h5.18Zm0,0-2.63,7h5.18ZM70,164a5,5,0,0,0-3.42-1.44c-2.91,0-5,2.38-5,5.59s2.13,5.59,5,5.59A5,5,0,0,0,70.27,172a6,6,0,0,0,1.33-3.82A5.52,5.52,0,0,0,70,164Zm-44.13-.61-2.63,7h5.17ZM70,164a5,5,0,0,0-3.42-1.44c-2.91,0-5,2.38-5,5.59s2.13,5.59,5,5.59A5,5,0,0,0,70.27,172a6,6,0,0,0,1.33-3.82A5.52,5.52,0,0,0,70,164Zm36.18-.61-2.63,7h5.18Zm0,0-2.63,7h5.18ZM70,164a5,5,0,0,0-3.42-1.44c-2.91,0-5,2.38-5,5.59s2.13,5.59,5,5.59A5,5,0,0,0,70.27,172a6,6,0,0,0,1.33-3.82A5.52,5.52,0,0,0,70,164Zm36.18-.61-2.63,7h5.18Zm0,0-2.63,7h5.18Z"/><path d="M2.32,14.44H.54V.28H2.32Z"/><path d="M8.69,14.44H6.91V.28H8.69Z"/><path d="M17.06,14.44H15.28V1.81H11.67V.28h9V1.81H17.06Z"/><path d="M35.12.28C38,.28,39.64,1.64,39.64,4a3.35,3.35,0,0,1-.81,2.29,3.17,3.17,0,0,1-1.44.91A3.21,3.21,0,0,1,39,7.92a3.29,3.29,0,0,1,1.17,2.7,3.58,3.58,0,0,1-1.53,3.1,6,6,0,0,1-3.52.72h-4V.28ZM32.91,6.63h1.8A3.53,3.53,0,0,0,37,6.05a2.41,2.41,0,0,0,.87-1.93,2.18,2.18,0,0,0-1.13-2,5.25,5.25,0,0,0-2.4-.34H32.91Zm0,6.37h1.78a4.76,4.76,0,0,0,2.68-.47,2.12,2.12,0,0,0,1-2c0-1.69-1-2.44-3.25-2.44H32.91Z"/><path d="M55.31,2.46A7.24,7.24,0,0,1,57,7.5a7.09,7.09,0,0,1-2.4,5.5,6.94,6.94,0,0,1-4.52,1.7A7.06,7.06,0,0,1,44.57,12a7.28,7.28,0,0,1-1.49-4.61c0-4.22,3-7.41,7-7.41A7,7,0,0,1,55.31,2.46ZM44.91,7.37c0,3.29,2.16,5.69,5.09,5.69a5,5,0,0,0,3.78-1.7,6,6,0,0,0,1.36-3.88,5.65,5.65,0,0,0-1.61-4.34,5.13,5.13,0,0,0-3.48-1.46C47.09,1.68,44.91,4.1,44.91,7.37Z"/><path d="M62.51,14.44H60.73V.28h1.76L67.74,10.9,73.05.28h1.74V14.44H73V4.08L67.74,14.59,62.51,4.06Z"/><path d="M83.37.28c2.89,0,4.52,1.36,4.52,3.76a3.35,3.35,0,0,1-.8,2.29,3.21,3.21,0,0,1-1.45.91,3.15,3.15,0,0,1,2.78,3.38,3.58,3.58,0,0,1-1.53,3.1,6,6,0,0,1-3.52.72h-4V.28ZM81.16,6.63H83a3.53,3.53,0,0,0,2.32-.58,2.41,2.41,0,0,0,.87-1.93,2.17,2.17,0,0,0-1.12-2,5.3,5.3,0,0,0-2.41-.34H81.16Zm0,6.37h1.78a4.76,4.76,0,0,0,2.68-.47,2.12,2.12,0,0,0,1-2c0-1.69-1-2.44-3.25-2.44H81.16Z"/><path d="M93.54,11.17l-1.29,3.27H90.4L95.73.28h2.12l5.21,14.16h-2l-1.17-3.27Zm3.21-8.64L94.07,9.64h5.27Z"/><path d="M109.62,14.44h-1.79V8.2L103,.28h2.1l3.66,6.07L112.32.28h2.12L109.62,8.2Z"/><path d="M117.8,4.84l-1.17-.4L118.35,0l1.4.51Z"/><path d="M124.12,10.64a2.31,2.31,0,0,0,2.51,2.47,2.47,2.47,0,0,0,2.72-2.4c0-1.24-.64-1.81-2.87-2.55a7.13,7.13,0,0,1-2.87-1.43,3.52,3.52,0,0,1-1.1-2.67,4.22,4.22,0,0,1,8.43,0h-1.78a2.77,2.77,0,0,0-.34-1.47,2.49,2.49,0,0,0-2.1-1,2.26,2.26,0,0,0-2.4,2.32,2,2,0,0,0,.8,1.64,8.77,8.77,0,0,0,2.28,1,6.46,6.46,0,0,1,2.8,1.53,3.67,3.67,0,0,1,1,2.51c0,2.44-1.8,4.1-4.46,4.1a4,4,0,0,1-3.78-1.91,3.51,3.51,0,0,1-.49-1.85v-.3Z"/><path d="M528.39,157.69v22.89H285.2V157.69H528.39m3.49-3.49H281.7v29.87H531.88V154.2Z"/><path d="M310.84,173.52V175H303l4.84-6.92c1.39-2,1.71-2.65,1.71-3.48a2.12,2.12,0,0,0-2.32-2.07,2.09,2.09,0,0,0-2,1.17,3.44,3.44,0,0,0-.25,1.44h-1.57c.09-2.65,1.48-4.11,4-4.11,2.27,0,3.86,1.42,3.86,3.44,0,1.17-.42,2.19-1.59,3.82l-3.73,5.19Z"/><path d="M315.36,162.88v-1.54h7.72L317.57,175h-1.79l4.92-12.16Z"/><path d="M336.7,170.71h-4.32v-1.44h4.32Z"/><path d="M346.54,162.84v-1.5h7.88l-4.09,5.2a4,4,0,0,1,4.13,4.19,4.45,4.45,0,0,1-4.6,4.54,4.09,4.09,0,0,1-4.24-3.33l1.5-.27a2.65,2.65,0,0,0,2.65,2.08,2.94,2.94,0,0,0,3-2.9,2.83,2.83,0,0,0-3.07-2.83,2.88,2.88,0,0,0-1.67.48l-.69-.61,4-5Z"/><path d="M365.85,170.85a4.38,4.38,0,0,1-1,3.26,4.86,4.86,0,0,1-6.36-.05c-.73-.77-.92-1.56-.92-3.67V165.8c0-1.81.21-2.66.84-3.42a4.07,4.07,0,0,1,3.25-1.29,4.56,4.56,0,0,1,3.09,1c.79.73,1.08,1.57,1.08,3.2Zm-6.61-.35c0,1.6.06,1.9.52,2.42a2.67,2.67,0,0,0,2,.81,2.5,2.5,0,0,0,2.05-.92,3.51,3.51,0,0,0,.43-2.06v-5.32a2.53,2.53,0,0,0-.71-2.13,2.56,2.56,0,0,0-1.77-.64,2.32,2.32,0,0,0-2.06,1,3.33,3.33,0,0,0-.44,2.19Z"/><path d="M377,161.13h3.69c4.19,0,6.71,2.55,6.71,6.74a7.21,7.21,0,0,1-2.19,5.57,7,7,0,0,1-4.83,1.6H377Zm1.75,12.41h.62c2.36,0,3.36-.25,4.36-1a5.56,5.56,0,0,0,1.88-4.61c0-3.36-1.79-5.28-5-5.28h-1.88Z"/><path d="M392.86,167.29h5.48v1.5h-5.48v4.75h5.48V175H391.1V161.13h7.24v1.5h-5.48Z"/><path d="M413,172.94a6.64,6.64,0,0,1-9.86.31,7.84,7.84,0,0,1-1.86-5.15c0-4.17,2.82-7.22,6.65-7.22a6.85,6.85,0,0,1,3.49.94,7.33,7.33,0,0,1,1.62,1.44l-1.21,1.13a4.89,4.89,0,0,0-3.85-1.9c-2.84,0-4.91,2.36-4.91,5.61s2.11,5.59,5,5.59a4.62,4.62,0,0,0,3.77-1.92Z"/><path d="M417.86,167.29h5.48v1.5h-5.48v4.75h5.48V175h-7.23V161.13h7.23v1.5h-5.48Z"/><path d="M428.93,175h-1.75V161.13h1.73l5.15,10.43,5.22-10.43H441V175h-1.75V164.87l-5.18,10.32-5.13-10.34Z"/><path d="M449.41,161.13c2.84,0,4.44,1.34,4.44,3.69a3.33,3.33,0,0,1-.79,2.26,3.16,3.16,0,0,1-1.42.89,3.12,3.12,0,0,1,2.74,3.32,3.56,3.56,0,0,1-1.51,3.05,5.93,5.93,0,0,1-3.46.7h-3.92V161.13Zm-2.17,6.24H449a3.54,3.54,0,0,0,2.27-.56,2.39,2.39,0,0,0,.85-1.9,2.11,2.11,0,0,0-1.1-2,5.1,5.1,0,0,0-2.36-.34h-1.44Zm0,6.26H449a4.69,4.69,0,0,0,2.63-.46,2.09,2.09,0,0,0,1-2c0-1.67-1-2.4-3.19-2.4h-2.19Z"/><path d="M459.61,167.29h5.48v1.5h-5.48v4.75h5.48V175h-7.23V161.13h7.23v1.5h-5.48Z"/><path d="M470.68,175h-1.75V161.13h3.8c3,0,4.75,1.53,4.75,4.05a3.78,3.78,0,0,1-2,3.5,5.74,5.74,0,0,1-2.57.59l5.41,5.77h-2.24l-5.4-5.84Zm1.75-7c2.11,0,3.26-1,3.26-2.72s-1-2.67-3-2.67h-2.05V168Z"/><path d="M490.51,161.28l1.11.38L490,165.81l-1.31-.49Z"/><path d="M495.52,165.89v-1.51l4.5-2.94v13.37h-1.57V163.94Z"/><path d="M512.35,168.46a3.51,3.51,0,0,1,1,2.57,3.93,3.93,0,0,1-4.16,4,3.83,3.83,0,0,1-4.1-3.88,3.79,3.79,0,0,1,1-2.66,3.08,3.08,0,0,1,1.55-.9,2.47,2.47,0,0,1-1.36-.87,3.09,3.09,0,0,1-.67-1.95,3.38,3.38,0,0,1,3.66-3.28,3.33,3.33,0,0,1,3.6,3.26,3.09,3.09,0,0,1-.74,2,2.52,2.52,0,0,1-1.31.81A3.05,3.05,0,0,1,512.35,168.46ZM506.66,171a2.55,2.55,0,1,0,2.59-2.57A2.56,2.56,0,0,0,506.66,171Zm.46-6.21a2.06,2.06,0,0,0,2.11,2,2.15,2.15,0,0,0,2.15-2,2.07,2.07,0,0,0-2.11-1.93A2,2,0,0,0,507.12,164.8Z"/></g></g></svg>