<svg xmlns="http://www.w3.org/2000/svg" viewBox="0 0 323.58 169.16"><title>Dates</title><g id="Layer_2" data-name="Layer 2"><g id="Layer_1-2" data-name="Layer 1"><path d="M46.58,64.86v13H0L26.8,36.92c5.86-9,7-11.39,7-15.07,0-4.94-3.79-8.51-9.08-8.51-4.14,0-7.36,2.07-8.63,5.41-.8,2.07-1,3.45-1.15,7.36H1.38C1.26,9.89,10.47,0,25.65,0c13.45,0,23,8.51,23,20.36,0,7-2.65,13.45-9.43,23.46l-14.38,21Z"/><path d="M62.33,15V1.61h45.31L77.51,77.86H62.22L87.06,15Z"/><path d="M219,14.26V1.61h46.69L244.36,30.25c12.42,1,20.47,10.12,20.47,23.11,0,15-10.81,26-25.53,26-8.51,0-16-3.68-20.24-10.12-2.3-3.45-3.22-6.44-3.91-12.19l13.23-.46c.92,6,4.94,9.55,10.58,9.55A11.57,11.57,0,0,0,250.69,54.4c0-6.79-4.95-11.73-11.85-11.73a12.42,12.42,0,0,0-7,1.95l-8.28-7L241,14.26Z"/><path d="M322.45,54.63c0,8.85-1.84,14.37-6.33,18.63-4.25,4-10.12,6.09-17.48,6.09-7.7,0-14.26-2.3-18.4-6.44s-5.75-9.77-5.75-21.73V26.68c0-9.89,1.5-15.52,5.18-19.55C283.81,2.53,290.48,0,298.18,0c7,0,13,2.07,17.37,6,4.94,4.37,6.9,9.66,6.9,18.86Zm-33.12-1.84c0,6.09.23,7.47,1.61,9.31,1.49,2.3,4.6,3.68,7.7,3.68a9,9,0,0,0,7.71-3.91c1.15-1.95,1.61-4.25,1.61-9.2V26c0-5.17-.58-7.36-2.3-9.31a9.18,9.18,0,0,0-7-2.88c-3.45,0-6.32,1.38-7.7,3.8-1.15,1.95-1.61,4.25-1.61,9.08Z"/><path d="M3.78,101.15h18.9c10.8,0,18.1,2.2,24,7.41,6.8,6,10.5,14.7,10.5,25.2,0,10.7-3.8,20.3-10.6,26.4-5.5,5-13.5,7.7-23.1,7.7H3.78Zm13.7,55.41h2.6c7.3,0,11.8-1.3,15.7-4.6,4.8-4.1,7.5-10.4,7.5-17.8,0-13.3-8.2-21.9-20.8-21.9h-5Z"/><path d="M81.28,128.76h23.4V140H81.28v16.7h23.4v11.2H67.58V101.15h37.1v11.21H81.28Z"/><path d="M171.28,159.06c-7.7,7.2-14.9,10.1-24.8,10.1s-18-3.4-23.9-10a36.93,36.93,0,0,1-9-24.5c0-20.3,13.8-34.81,33.1-34.81,10.3,0,17.3,2.9,25.2,10.61l-8.9,9c-5.4-4.9-10-6.9-15.6-6.9-11.7,0-19.9,9-19.9,21.8s8.6,22.1,20.6,22.1a18.47,18.47,0,0,0,14.9-6.8Z"/><path d="M214.68,99.85l8.6,2.2-5.6,21.51-10.91-2.9Z"/><path d="M238.37,124.66v-11.9l25-13v68.11h-12.9v-49.7Z"/><path d="M323.58,148.56c0,12.1-9,20.6-21.8,20.6s-21.41-8.1-21.41-19.9c0-8.1,3.3-13.5,9.9-16.3-5.1-2.5-7.9-7.4-7.9-13.8,0-11.1,8.31-19,20-19,11.4,0,19.6,7.81,19.6,18.61a17.2,17.2,0,0,1-2.8,9.7A11.58,11.58,0,0,1,314,133Q323.58,137.16,323.58,148.56Zm-30.9-.2a9,9,0,0,0,9.3,9.2,9.18,9.18,0,0,0,9.2-9.2,9.31,9.31,0,0,0-9.1-9.3A9.18,9.18,0,0,0,292.68,148.36Zm1.3-29.2a8.22,8.22,0,0,0,8.2,8.4,8.57,8.57,0,0,0,8.5-8.2,8.48,8.48,0,0,0-8.4-8.2C297.48,111.16,294,114.56,294,119.16Z"/><rect x="117.43" y="33.15" width="84.5" height="12.17"/></g></g></svg>