<?xml version="1.0" standalone="no"?>
<!DOCTYPE svg PUBLIC "-//W3C//DTD SVG 20010904//EN"
 "http://www.w3.org/TR/2001/REC-SVG-20010904/DTD/svg10.dtd">
<svg version="1.0" xmlns="http://www.w3.org/2000/svg"
 width="1300.000000pt" height="1300.000000pt" viewBox="0 0 1300.000000 1300.000000"
 preserveAspectRatio="xMidYMid meet">
<metadata>
Created by potrace 1.11, written by Peter Selinger 2001-2013
</metadata>
<g transform="translate(0.000000,1300.000000) scale(0.100000,-0.100000)"
fill="#000000" stroke="none">
<path d="M0 6500 l0 -6500 6500 0 6500 0 0 6500 0 6500 -6500 0 -6500 0 0
-6500z m900 3310 c0 -127 -2 -150 -15 -150 -13 0 -15 23 -15 150 0 127 2 150
15 150 13 0 15 -23 15 -150z m140 0 c0 -93 -4 -150 -10 -150 -6 0 -10 57 -10
150 0 93 4 150 10 150 6 0 10 -57 10 -150z m235 141 l-40 -6 -3 -142 c-1 -81
-7 -143 -12 -143 -5 0 -11 62 -12 143 l-3 142 -40 6 c-25 4 -5 6 55 6 60 0 80
-2 55 -6z m443 -7 c26 -18 30 -79 8 -109 -12 -17 -11 -23 11 -49 19 -23 23
-37 19 -60 -10 -50 -38 -66 -117 -66 l-69 0 0 150 0 150 63 0 c40 0 70 -5 85
-16z m371 -10 c74 -62 62 -217 -21 -260 -47 -25 -116 -23 -160 4 -83 52 -89
195 -10 259 22 19 39 23 94 23 57 0 71 -4 97 -26z m236 -83 c30 -60 59 -112
65 -116 5 -3 35 45 67 110 32 63 63 115 70 115 10 0 13 -35 13 -150 0 -93 -4
-150 -10 -150 -6 0 -10 41 -10 104 0 58 -4 108 -10 111 -5 3 -34 -43 -63 -102
l-54 -107 -54 104 c-30 57 -58 104 -64 104 -6 1 -11 -43 -13 -106 -4 -166 -22
-132 -22 42 0 189 8 193 85 41z m493 93 c30 -21 31 -85 2 -112 l-21 -19 26
-17 c20 -13 25 -24 25 -61 0 -60 -23 -75 -112 -75 l-68 0 0 150 0 150 63 0
c40 0 70 -5 85 -16z m310 -127 c28 -79 52 -147 52 -150 0 -4 -6 -7 -14 -7 -7
0 -17 15 -22 33 l-10 32 -79 0 -80 0 -14 -32 c-8 -18 -20 -33 -28 -33 -10 0
-8 11 6 48 10 26 35 93 56 150 32 85 42 102 59 102 18 0 29 -21 74 -143z m152
78 c20 -33 41 -59 46 -59 5 1 25 28 45 60 20 33 43 60 52 62 12 3 3 -20 -33
-80 -47 -78 -50 -87 -50 -150 0 -39 -4 -68 -10 -68 -6 0 -10 27 -10 62 0 57
-4 67 -55 150 -40 64 -51 89 -39 86 10 -2 34 -30 54 -63z m280 61 c0 -13 -32
-77 -37 -73 -7 7 19 77 29 77 4 0 8 -2 8 -4z m246 -21 c23 -36 9 -44 -20 -12
-14 15 -35 27 -47 27 -27 0 -69 -37 -69 -60 0 -23 38 -55 82 -69 75 -24 98
-96 47 -146 -26 -27 -99 -27 -128 -1 -22 20 -29 56 -11 56 6 0 10 -4 10 -10 0
-18 40 -50 62 -50 29 0 68 38 68 66 0 26 -39 60 -79 69 -64 14 -92 81 -55 133
12 18 25 22 69 22 47 0 57 -3 71 -25z m1138 -498 c68 -31 122 -86 155 -156 22
-48 26 -70 26 -146 0 -83 -3 -95 -34 -153 -37 -68 -83 -110 -158 -145 -74 -34
-198 -31 -275 6 -139 68 -213 226 -174 375 32 126 114 209 241 243 52 14 161
2 219 -24z m890 0 c65 -30 117 -81 153 -150 25 -46 28 -63 28 -147 0 -89 -2
-99 -34 -158 -40 -73 -74 -105 -151 -141 -73 -35 -200 -36 -272 -4 -239 108
-260 448 -37 585 85 53 217 59 313 15z m6343 -28 c35 -13 43 -25 43 -70 0 -52
-20 -74 -70 -74 -32 0 -46 6 -60 25 -16 21 -20 23 -25 8 -10 -24 -53 -32 -81
-13 -35 22 -34 88 1 111 27 18 62 11 82 -15 10 -14 12 -14 19 2 6 16 34 34 56
36 4 1 19 -4 35 -10z m-10340 -396 c107 -219 272 -553 365 -742 147 -300 170
-343 183 -330 8 8 174 340 368 739 l354 725 386 3 387 2 0 -1375 0 -1375 -325
0 -325 0 0 779 c0 525 -3 782 -10 786 -6 4 -179 -333 -423 -824 -227 -457
-414 -831 -417 -831 -3 0 -192 372 -420 827 -228 455 -419 827 -425 827 -7 1
-11 -268 -13 -781 l-2 -783 -325 0 -325 0 0 1375 0 1375 386 0 385 0 196 -397z
m9133 -983 l0 -1370 -305 0 -305 0 0 94 c0 113 -10 126 -54 70 -81 -104 -174
-163 -323 -206 -68 -20 -101 -23 -258 -23 -209 0 -299 18 -442 85 -319 149
-493 433 -519 842 -24 395 131 744 413 931 194 128 352 177 571 177 213 0 353
-47 515 -171 42 -33 82 -57 87 -54 6 4 10 186 10 501 l0 494 305 0 305 0 0
-1370z m-2930 934 l0 -176 -22 6 c-13 3 -229 6 -480 6 l-458 0 0 170 0 170
480 0 480 0 0 -176z m4180 166 c0 -6 -41 -10 -104 -10 -106 0 -129 -8 -105
-36 6 -8 10 -17 7 -19 -3 -3 -17 13 -32 35 l-26 40 130 0 c80 0 130 -4 130
-10z m-512 -89 c39 -21 62 -70 62 -134 0 -69 -19 -111 -60 -132 -42 -22 -358
-22 -400 0 -40 21 -60 63 -60 130 0 84 29 130 93 146 50 13 338 5 365 -10z
m292 -96 c23 -9 28 -14 15 -14 -11 0 -31 6 -45 14 -31 18 -16 18 30 0z m80
-175 c11 -11 20 -28 20 -38 0 -34 12 -32 64 13 29 26 53 40 55 33 2 -6 -22
-34 -53 -62 -32 -28 -54 -54 -50 -58 4 -5 29 -8 56 -8 26 0 48 -4 48 -10 0 -6
-52 -10 -136 -10 l-137 0 6 62 c4 48 11 67 27 80 29 24 75 23 100 -2z m-6575
-161 c168 -34 335 -114 470 -225 127 -105 264 -332 305 -506 73 -311 32 -583
-126 -826 -136 -208 -352 -357 -623 -430 -85 -22 -117 -25 -276 -26 -203 -1
-287 12 -437 68 -249 93 -453 287 -552 524 -140 330 -102 738 95 1029 18 26
69 84 114 128 248 243 635 342 1030 264z m2288 0 c321 -64 574 -260 711 -550
105 -222 130 -503 65 -739 -69 -255 -265 -487 -514 -610 -187 -92 -355 -126
-579 -117 -352 14 -648 165 -825 422 -247 356 -238 877 21 1228 227 307 676
454 1121 366z m3908 -16 c93 -54 92 -230 0 -278 -37 -19 -39 -19 -43 1 -2 9
14 34 35 54 31 32 37 44 37 80 0 36 -6 48 -39 81 -32 32 -45 39 -79 39 -76 0
-137 -82 -113 -152 24 -68 10 -65 -100 23 -49 39 -93 68 -99 64 -5 -3 -10 -44
-10 -91 0 -68 -3 -84 -15 -84 -13 0 -15 22 -15 135 0 74 2 135 5 135 4 0 42
-29 87 -65 44 -36 86 -64 92 -62 6 2 13 17 17 33 10 50 29 75 72 95 50 23 120
20 168 -8z m271 -115 l3 -53 50 0 50 0 4 55 5 55 5 -55 6 -55 55 0 55 0 6 55
6 55 1 -67 2 -68 -135 0 -135 0 0 65 c0 78 18 88 22 13z m232 -184 c11 -11 16
-35 16 -80 l0 -64 -135 0 -135 0 0 39 c0 45 15 92 33 103 19 12 61 9 84 -7 18
-13 22 -12 38 5 22 24 77 26 99 4z m-604 -299 c0 -68 -2 -75 -20 -75 -18 0
-20 7 -20 75 0 68 2 75 20 75 18 0 20 -7 20 -75z m530 26 c-54 -4 -95 -10 -94
-16 0 -5 40 -31 89 -56 l89 -47 -92 -46 c-51 -26 -90 -51 -87 -56 3 -6 46 -10
96 -10 53 0 89 -4 89 -10 0 -6 -52 -10 -135 -10 -83 0 -135 4 -135 10 0 5 45
32 99 60 55 27 102 54 106 60 3 5 -40 33 -100 62 -58 29 -105 56 -105 60 0 5
62 7 138 6 135 -2 135 -2 42 -7z m-158 -403 l3 -53 50 0 50 0 4 55 5 55 5 -55
6 -55 55 0 55 0 6 55 6 55 1 -67 2 -68 -135 0 -135 0 0 65 c0 78 18 88 22 13z
m-422 -264 c188 -75 205 -84 208 -108 2 -14 1 -26 -1 -26 -2 0 -103 40 -223
89 -120 49 -222 87 -226 84 -5 -2 -8 -47 -8 -99 0 -87 -1 -94 -20 -94 -19 0
-20 7 -20 135 l0 135 43 -17 c23 -9 134 -54 247 -99z m437 68 c-64 -71 19
-185 123 -168 79 12 126 110 80 169 -12 15 -16 28 -11 32 14 8 41 -36 47 -77
15 -88 -66 -158 -164 -143 -68 10 -112 57 -112 119 0 55 26 114 43 97 7 -7 6
-16 -6 -29z m33 -377 l55 0 4 55 5 55 5 -55 6 -55 55 0 55 0 6 55 6 55 1 -67
2 -68 -135 0 -135 0 2 68 1 67 6 -55 6 -55 55 0z m-575 -44 c22 -10 90 -54
150 -99 61 -44 113 -78 118 -75 4 2 7 42 7 89 0 77 2 84 20 84 19 0 20 -7 20
-136 l0 -136 -47 35 c-242 174 -297 207 -340 207 -59 0 -105 -67 -84 -122 11
-28 56 -68 77 -68 8 0 14 -9 14 -20 0 -24 -18 -25 -64 -6 -51 21 -66 50 -66
127 0 53 4 72 21 93 39 49 105 59 174 27z m705 -87 c51 -21 70 -56 70 -129 l0
-55 -135 0 -135 0 0 45 c0 70 25 121 68 139 48 20 82 20 132 0z m-9750 -476
c51 -15 125 -64 155 -104 53 -69 69 -122 69 -219 0 -78 -3 -98 -27 -147 -98
-200 -369 -252 -536 -102 -29 26 -61 68 -78 102 -23 49 -27 70 -28 147 0 79 3
97 29 148 35 72 80 119 149 153 79 41 177 48 267 22z m4801 -25 c69 -31 122
-84 155 -155 25 -54 29 -75 29 -153 0 -76 -4 -99 -26 -145 -36 -77 -68 -112
-139 -149 -49 -26 -77 -34 -139 -38 -147 -10 -258 44 -320 158 -35 62 -36 67
-36 174 0 100 2 115 27 161 65 123 164 176 318 171 59 -2 99 -10 131 -24z
m-5661 -1438 l0 -1415 -335 0 -335 0 0 1415 0 1415 335 0 335 0 0 -1415z
m4800 0 l0 -1415 -315 0 -315 0 0 99 c0 55 -4 102 -8 105 -4 3 -41 -31 -81
-75 -60 -66 -86 -86 -154 -118 -150 -72 -329 -100 -518 -81 -255 25 -450 111
-604 265 -208 207 -311 542 -276 895 40 400 225 674 566 840 180 88 350 119
542 100 178 -18 336 -86 466 -200 26 -23 51 -39 57 -35 7 4 10 183 10 521 l0
514 315 0 315 0 0 -1415z m3116 1305 c25 -58 51 -111 59 -119 15 -15 17 -12
90 162 l28 67 173 0 173 0 -58 -127 c-32 -71 -95 -210 -141 -310 l-82 -183
-177 0 -176 0 -134 297 c-73 163 -135 303 -138 310 -4 11 27 13 167 11 l172
-3 44 -105z m1504 87 c0 -95 95 -213 195 -243 107 -31 194 -4 277 84 42 45 78
122 78 169 0 10 40 13 191 13 l191 0 -7 -52 c-20 -165 -75 -279 -185 -388
-124 -125 -281 -190 -457 -190 -347 0 -620 237 -659 573 l-6 57 191 0 191 0 0
-23z m-7650 -794 c140 -34 280 -117 350 -209 23 -29 54 -84 70 -122 55 -129
61 -206 67 -764 3 -279 2 -599 -2 -712 l-7 -206 -309 0 -308 0 -3 643 c-3 642
-3 642 -26 698 -46 116 -168 190 -285 175 -108 -15 -186 -77 -229 -185 -23
-56 -23 -58 -26 -693 l-3 -638 -314 0 -315 0 0 980 0 980 315 0 315 0 0 -99
c0 -55 4 -102 9 -105 5 -4 29 22 54 57 95 132 197 197 347 218 74 10 221 2
300 -18z m5515 2 c109 -23 239 -92 327 -175 42 -38 78 -67 82 -63 3 3 6 46 6
95 l0 88 305 0 306 0 -4 -1032 c-3 -1004 -4 -1036 -24 -1128 -28 -124 -47
-179 -94 -271 -109 -209 -305 -357 -594 -445 -87 -27 -99 -28 -365 -32 -301
-4 -355 1 -503 49 -159 52 -354 162 -488 275 l-57 48 190 198 191 197 65 -60
c150 -137 333 -209 529 -209 282 1 474 151 527 412 17 82 22 233 8 242 -5 3
-26 -13 -48 -35 -217 -225 -602 -306 -931 -197 -411 136 -643 492 -643 988 0
344 109 625 318 821 124 117 269 190 452 229 108 24 344 26 445 5z m2714 -15
c370 -98 633 -344 744 -695 40 -127 50 -216 45 -387 -6 -168 -28 -268 -89
-395 -144 -302 -443 -520 -799 -584 -95 -17 -332 -17 -430 0 -227 40 -438 146
-585 295 -246 248 -343 614 -265 996 83 407 398 702 836 785 124 23 432 15
543 -15z m-4169 -1020 l0 -980 -315 0 -315 0 0 980 0 980 315 0 315 0 0 -980z
m0 -1585 l0 -335 -3255 0 -3255 0 0 335 0 335 3255 0 3255 0 0 -335z"/>
<path d="M1600 9885 l0 -55 36 0 c54 0 74 15 74 55 0 40 -20 55 -74 55 l-36 0
0 -55z"/>
<path d="M1605 9787 c-4 -8 -5 -34 -3 -58 l3 -44 44 1 c33 1 49 7 63 24 22 28
22 33 1 59 -23 27 -100 40 -108 18z"/>
<path d="M1929 9927 c-89 -60 -81 -194 15 -241 32 -16 44 -17 75 -7 121 36
130 200 14 260 -33 17 -67 13 -104 -12z"/>
<path d="M2700 9885 l0 -55 38 0 c43 0 72 23 72 58 0 27 -36 52 -77 52 l-33 0
0 -55z"/>
<path d="M2700 9740 l0 -63 45 5 c55 7 75 22 75 58 0 36 -14 47 -72 55 l-48 7
0 -62z"/>
<path d="M3043 9893 c-3 -10 -14 -40 -25 -66 -10 -26 -18 -52 -18 -57 0 -6 25
-10 56 -10 50 0 55 2 49 18 -4 9 -16 43 -27 75 -11 31 -22 57 -24 57 -3 0 -7
-8 -11 -17z"/>
<path d="M12104 9365 c-15 -23 -15 -27 0 -50 19 -29 56 -33 80 -9 21 21 20 47
-2 67 -27 24 -59 21 -78 -8z"/>
<path d="M11991 9366 c-8 -10 -11 -26 -7 -42 5 -20 12 -25 33 -22 14 2 31 11
37 21 23 36 -36 76 -63 43z"/>
<path d="M9749 8097 c-199 -69 -322 -263 -323 -507 0 -159 51 -286 155 -385
242 -231 609 -139 729 183 99 263 -10 577 -238 689 -66 33 -84 38 -166 40 -75
3 -103 0 -157 -20z"/>
<path d="M11325 8975 c-34 -33 -34 -93 -1 -132 l24 -28 156 -3 156 -3 30 30
c40 39 42 100 5 136 -24 24 -27 25 -185 25 -158 0 -161 -1 -185 -25z"/>
<path d="M11992 8748 c-7 -7 -12 -29 -12 -50 l0 -38 56 0 57 0 -6 36 c-3 20
-11 42 -18 50 -14 17 -61 18 -77 2z"/>
<path d="M5170 8080 c-190 -33 -327 -174 -360 -373 -27 -158 15 -327 107 -428
131 -145 346 -185 530 -99 153 71 243 229 243 425 -1 262 -134 438 -360 474
-73 12 -95 12 -160 1z"/>
<path d="M4893 7067 c-37 -62 -42 -78 -27 -84 7 -2 28 25 48 61 40 71 41 76
23 76 -7 0 -27 -24 -44 -53z"/>
<path d="M5550 7111 c0 -13 68 -128 80 -136 21 -13 9 32 -23 84 -30 51 -57 75
-57 52z"/>
<path d="M5082 7063 c-19 -35 -40 -133 -30 -139 14 -9 19 -1 39 73 18 65 13
107 -9 66z"/>
<path d="M5396 7061 c-6 -10 23 -121 37 -138 16 -22 26 -4 17 30 -5 17 -14 51
-20 75 -10 40 -23 52 -34 33z"/>
<path d="M5234 7037 c-3 -8 -4 -43 -2 -78 2 -49 7 -64 18 -64 12 0 15 15 15
74 0 51 -4 76 -12 78 -7 3 -15 -2 -19 -10z"/>
<path d="M7524 8316 c-10 -26 1 -139 14 -144 9 -3 12 17 12 77 0 49 -4 81 -10
81 -6 0 -13 -6 -16 -14z"/>
<path d="M7724 8299 c-9 -12 -44 -124 -44 -142 0 -4 6 -7 14 -7 8 0 20 24 31
63 19 70 18 111 -1 86z"/>
<path d="M7338 8294 c-7 -6 19 -110 33 -137 12 -21 32 -12 25 11 -3 10 -12 43
-21 75 -15 53 -24 65 -37 51z"/>
<path d="M7913 8239 c-19 -24 -73 -119 -73 -129 0 -6 6 -10 13 -10 15 0 82
121 76 139 -4 11 -7 11 -16 0z"/>
<path d="M7140 8234 c0 -18 74 -134 86 -134 8 0 14 3 14 7 0 17 -76 133 -87
133 -7 0 -13 -3 -13 -6z"/>
<path d="M7470 8059 c-149 -13 -269 -58 -379 -143 -65 -50 -171 -160 -232
-241 l-43 -57 17 -31 c10 -18 49 -68 87 -111 137 -155 262 -245 400 -288 64
-20 96 -23 225 -23 137 0 157 3 231 28 104 35 212 105 307 200 75 75 177 202
177 219 0 14 -85 122 -153 195 -181 193 -386 274 -637 252z m112 -289 c44 -13
93 -52 113 -91 22 -41 19 -124 -6 -168 -61 -109 -217 -118 -294 -17 -72 94
-23 241 92 276 39 11 52 11 95 0z"/>
<path d="M7176 7056 c-41 -72 -42 -76 -22 -76 8 0 30 29 50 64 41 72 42 76 22
76 -8 0 -30 -29 -50 -64z"/>
<path d="M7840 7111 c0 -16 58 -117 75 -131 27 -23 17 21 -18 79 -31 52 -57
75 -57 52z"/>
<path d="M7372 7064 c-18 -34 -42 -138 -33 -147 12 -12 19 3 41 77 18 63 13
109 -8 70z"/>
<path d="M7686 7061 c-4 -5 -4 -15 -2 -23 3 -7 12 -39 21 -70 15 -57 35 -78
35 -38 0 30 -32 140 -41 140 -4 0 -10 -4 -13 -9z"/>
<path d="M7524 7036 c-10 -26 1 -139 14 -144 9 -3 12 17 12 77 0 49 -4 81 -10
81 -6 0 -13 -6 -16 -14z"/>
<path d="M12109 8253 c-5 -15 -9 -38 -7 -52 3 -23 8 -26 51 -29 l47 -3 0 43
c0 51 -13 68 -52 68 -22 0 -31 -6 -39 -27z"/>
<path d="M11979 8243 c-19 -51 -9 -68 44 -71 l47 -3 0 38 c0 46 -14 63 -52 63
-22 0 -31 -6 -39 -27z"/>
<path d="M12035 6891 c-33 -14 -54 -44 -61 -89 l-7 -42 117 0 116 0 0 35 c0
52 -43 96 -100 101 -25 2 -54 0 -65 -5z"/>
<path d="M2214 6261 c-101 -62 -117 -180 -35 -262 65 -65 157 -65 222 0 84 84
64 211 -43 267 -38 20 -107 17 -144 -5z"/>
<path d="M5140 5059 c-25 -5 -77 -24 -116 -44 -125 -61 -218 -184 -259 -340
-19 -76 -19 -234 0 -308 59 -226 243 -377 460 -377 212 0 383 139 451 365 29
95 24 257 -10 362 -47 144 -132 248 -251 304 -95 45 -179 57 -275 38z"/>
<path d="M8628 5016 c-199 -57 -320 -213 -334 -431 -11 -149 35 -289 128 -390
91 -100 199 -145 347 -145 142 0 254 43 346 133 73 72 96 137 102 282 11 256
-82 444 -259 525 -65 30 -83 34 -178 37 -67 1 -122 -2 -152 -11z"/>
<path d="M11141 5019 c-160 -27 -291 -147 -344 -314 -30 -98 -29 -253 2 -344
61 -175 194 -288 367 -310 286 -36 504 148 521 439 10 158 -35 308 -120 406
-45 52 -138 101 -224 119 -75 16 -122 17 -202 4z"/>
<path d="M2347 3136 c-42 -15 -73 -40 -89 -71 -75 -139 56 -298 195 -237 58
26 89 71 95 137 10 119 -96 208 -201 171z m126 -64 c56 -57 43 -173 -24 -207
-49 -26 -97 -19 -135 19 -30 30 -34 40 -34 85 0 29 7 65 15 81 34 66 123 77
178 22z"/>
<path d="M3608 3138 c-46 -12 -93 -64 -108 -119 -21 -77 14 -154 84 -188 54
-27 81 -26 136 2 48 24 75 61 85 120 l7 37 -81 0 c-65 0 -81 -3 -81 -15 0 -12
13 -15 55 -15 50 0 55 -2 55 -22 -1 -48 -54 -88 -115 -88 -90 0 -142 130 -84
211 36 51 117 62 160 23 11 -10 25 -14 36 -9 16 6 14 10 -15 36 -18 16 -41 29
-51 29 -11 0 -25 2 -33 4 -7 2 -30 -1 -50 -6z"/>
<path d="M4405 3135 c-136 -48 -150 -242 -21 -304 52 -26 79 -26 133 -1 67 30
103 107 89 186 -9 43 -66 110 -104 118 -15 4 -34 9 -42 11 -8 2 -33 -2 -55
-10z m103 -45 c80 -49 78 -191 -4 -228 -95 -44 -189 42 -165 149 11 48 17 57
55 80 40 24 73 24 114 -1z"/>
<path d="M1426 3132 c-5 -8 -116 -303 -116 -308 0 -2 9 -4 19 -4 13 0 24 11
32 35 l13 35 77 0 76 0 9 -32 c7 -24 17 -34 33 -36 17 -3 22 0 19 10 -3 7 -30
79 -59 160 -47 129 -57 148 -76 148 -12 0 -24 -3 -27 -8z m56 -127 l27 -75
-60 0 c-34 0 -59 4 -57 8 2 4 14 38 27 75 14 37 27 67 30 67 4 0 18 -34 33
-75z"/>
<path d="M1830 2980 c0 -153 1 -160 20 -160 19 0 20 7 21 118 l1 117 58 -119
58 -120 60 120 61 119 0 -117 c1 -111 2 -118 21 -118 19 0 20 7 20 160 0 153
-1 160 -20 160 -15 0 -34 -27 -81 -122 l-62 -123 -58 123 c-46 98 -62 122 -78
122 -20 0 -21 -5 -21 -160z"/>
<path d="M2640 2980 c0 -152 1 -160 20 -160 18 0 20 8 22 117 l3 117 83 -117
c58 -82 88 -117 102 -117 19 0 20 7 20 160 0 152 -1 160 -20 160 -18 0 -20 -8
-22 -122 l-3 -123 -85 122 c-117 168 -120 167 -120 -37z"/>
<path d="M2950 3126 c0 -10 14 -16 43 -18 l42 -3 3 -142 c2 -135 4 -143 22
-143 19 0 20 7 20 145 l0 145 40 0 c29 0 40 4 40 15 0 12 -18 15 -105 15 -85
0 -105 -3 -105 -14z"/>
<path d="M3281 3118 c-92 -240 -111 -292 -111 -295 0 -1 9 -3 19 -3 13 0 24
11 32 35 l13 35 77 0 76 0 9 -32 c7 -24 17 -34 33 -36 17 -3 22 0 19 10 -3 7
-29 79 -59 161 -48 131 -56 147 -76 147 -15 0 -27 -8 -32 -22z m61 -113 l27
-75 -59 0 -59 0 27 75 c15 41 29 75 32 75 3 0 17 -34 32 -75z"/>
<path d="M3890 2980 l0 -160 80 0 c64 0 80 3 80 15 0 12 -13 15 -60 15 l-60 0
0 55 0 55 60 0 c53 0 60 2 60 20 0 18 -7 20 -60 20 l-60 0 0 50 0 50 60 0 c53
0 60 2 60 20 0 18 -7 20 -80 20 l-80 0 0 -160z"/>
<path d="M4697 3133 c-4 -3 -7 -75 -7 -160 0 -143 1 -153 19 -153 22 0 31 26
31 93 l0 47 60 0 c53 0 60 2 60 20 0 18 -7 20 -60 20 l-60 0 0 50 0 50 60 0
c53 0 60 2 60 20 0 18 -7 20 -78 20 -43 0 -82 -3 -85 -7z"/>
<path d="M5110 2981 l0 -161 63 0 c83 0 125 22 155 80 19 36 22 56 19 97 -10
96 -54 134 -164 141 l-73 5 0 -162z m157 104 c29 -19 46 -77 39 -129 -10 -66
-58 -106 -127 -106 l-29 0 0 131 0 131 48 -7 c26 -3 57 -13 69 -20z"/>
<path d="M5438 3134 c-5 -4 -8 -76 -8 -161 l0 -153 25 0 c24 0 25 3 25 62 l0
62 64 -63 c39 -38 70 -62 81 -59 13 2 4 17 -39 65 l-56 61 30 7 c66 14 92 99
46 152 -21 24 -32 28 -92 31 -38 2 -72 0 -76 -4z m140 -46 c7 -7 12 -27 12
-44 0 -40 -30 -64 -77 -64 l-33 0 0 60 0 60 43 0 c24 0 48 -5 55 -12z"/>
<path d="M5727 3133 c-4 -3 -7 -75 -7 -160 l0 -153 85 0 c69 0 85 3 85 15 0
12 -14 15 -65 15 l-65 0 0 55 0 55 65 0 c58 0 65 2 65 20 0 18 -7 20 -65 20
l-65 0 0 50 0 50 65 0 c58 0 65 2 65 20 0 18 -7 20 -78 20 -43 0 -82 -3 -85
-7z"/>
<path d="M6065 3123 c-4 -10 -26 -70 -50 -133 -24 -63 -48 -127 -54 -142 -9
-25 -8 -28 9 -28 13 0 25 12 34 35 l15 35 75 0 74 0 12 -35 c8 -24 18 -35 31
-35 10 0 19 3 19 7 0 3 -25 75 -56 160 -50 135 -59 153 -79 153 -13 0 -26 -8
-30 -17z m59 -117 c14 -37 26 -70 26 -72 0 -2 -27 -4 -59 -4 l-59 0 18 48 c10
26 23 60 29 76 7 16 13 27 15 25 3 -2 16 -35 30 -73z"/>
<path d="M6307 3133 c-4 -3 -7 -75 -7 -160 0 -146 1 -153 20 -153 19 0 20 7
21 118 l0 117 61 -120 60 -120 59 115 58 115 0 -112 c1 -106 2 -113 21 -113
19 0 20 7 20 160 0 146 -2 160 -18 160 -12 0 -35 -35 -78 -122 l-61 -123 -62
123 c-56 111 -75 135 -94 115z"/>
<path d="M6735 3115 c-29 -28 -33 -79 -11 -111 8 -12 37 -29 63 -39 26 -10 54
-22 61 -28 16 -13 15 -62 -2 -76 -24 -20 -79 -9 -91 17 -11 25 -45 30 -45 6 0
-69 109 -97 167 -42 26 24 31 83 11 111 -7 9 -39 28 -71 42 -62 27 -73 41 -63
80 12 46 91 45 102 -1 4 -15 13 -24 25 -24 26 0 24 23 -7 59 -22 26 -33 31
-70 31 -34 0 -51 -6 -69 -25z"/>
</g>
</svg>
