<?xml version="1.0" standalone="no"?>
<!DOCTYPE svg PUBLIC "-//W3C//DTD SVG 20010904//EN"
 "http://www.w3.org/TR/2001/REC-SVG-20010904/DTD/svg10.dtd">
<svg version="1.0" xmlns="http://www.w3.org/2000/svg"
 width="256.000000pt" height="256.000000pt" viewBox="0 0 256.000000 256.000000"
 preserveAspectRatio="xMidYMid meet">
<metadata>
Created by potrace 1.11, written by Peter Selinger 2001-2013
</metadata>
<g transform="translate(0.000000,256.000000) scale(0.100000,-0.100000)"
fill="#000000" stroke="none">
<path d="M1140 2554 c-23 -4 -118 -21 -165 -30 -11 -2 -56 -16 -100 -30 -427
-141 -744 -496 -847 -949 -30 -127 -33 -355 -7 -491 93 -492 442 -875 919
-1008 30 -8 69 -18 85 -21 17 -2 41 -7 55 -11 14 -3 90 -7 170 -9 243 -5 413
33 625 143 344 178 590 514 664 907 24 126 22 362 -3 475 -87 394 -327 711
-672 887 -95 49 -250 105 -324 117 -19 3 -48 9 -65 12 -36 7 -300 13 -335 8z
m470 -333 c3 0 4 -34 3 -73 -1 -40 -2 -95 -3 -121 l0 -49 -42 2 c-24 1 -62 1
-85 1 -40 -1 -43 -3 -43 -28 l0 -28 -150 0 -150 0 0 27 c0 16 -6 28 -12 29 -7
0 -46 0 -85 -1 -54 -1 -73 2 -74 12 -2 29 -5 223 -3 228 2 4 627 5 644 1z
m-168 -381 c148 -34 297 -142 368 -265 70 -122 99 -305 69 -431 -21 -88 -79
-194 -144 -260 -130 -132 -273 -186 -480 -180 -178 5 -310 63 -422 184 -96
104 -143 232 -144 388 -2 346 256 588 618 578 46 -1 106 -7 135 -14z m-147
-1212 c44 1 94 3 112 6 30 6 32 4 35 -26 l3 -33 80 0 80 1 5 -66 c3 -36 3 -91
2 -122 l-4 -58 -321 0 -322 0 0 120 c0 99 3 120 15 121 8 1 47 2 85 3 l70 1 0
33 c0 32 0 32 40 26 22 -3 76 -6 120 -6z"/>
<path d="M1280 1635 c0 -25 4 -45 9 -45 5 0 9 20 9 45 1 25 -3 45 -8 45 -6 0
-10 -20 -10 -45z"/>
<path d="M1177 1664 c-7 -12 15 -84 26 -84 4 0 4 12 1 28 -12 47 -21 66 -27
56z"/>
<path d="M1381 1638 c-13 -37 -14 -58 -3 -58 11 0 31 79 22 85 -5 3 -13 -9
-19 -27z"/>
<path d="M1481 1604 c-28 -47 -21 -70 7 -24 20 32 28 60 18 60 -2 0 -14 -16
-25 -36z"/>
<path d="M1083 1590 c12 -22 25 -40 30 -40 12 0 8 13 -13 48 -28 46 -43 40
-17 -8z"/>
<path d="M1153 1510 c-68 -22 -119 -58 -185 -129 -90 -97 -89 -94 -68 -128 26
-43 122 -138 170 -168 63 -40 117 -56 200 -60 94 -4 168 15 237 60 84 56 183
163 183 198 0 9 -37 54 -82 100 -78 78 -128 111 -204 135 -51 16 -193 12 -251
-8z m214 -165 c32 -37 31 -94 -2 -133 -58 -69 -149 -43 -179 51 -8 25 17 81
45 101 36 26 107 16 136 -19z"/>
<path d="M1085 969 c-24 -45 -12 -58 13 -15 25 42 26 46 12 46 -5 0 -17 -14
-25 -31z"/>
<path d="M1473 960 c12 -22 25 -40 30 -40 12 0 8 13 -13 48 -28 46 -43 40 -17
-8z"/>
<path d="M1186 953 c-4 -16 -9 -36 -12 -45 -3 -10 -1 -18 5 -18 9 0 31 59 31
83 0 19 -19 4 -24 -20z"/>
<path d="M1370 969 c0 -29 21 -89 30 -84 4 3 3 23 -4 44 -12 42 -26 63 -26 40z"/>
<path d="M1280 915 c0 -25 4 -45 8 -45 5 0 9 20 11 45 1 26 -2 45 -9 45 -5 0
-10 -20 -10 -45z"/>
</g>
</svg>
